<?xml version="1.0" encoding="UTF-8" standalone="no"?>
<!DOCTYPE svg PUBLIC "-//W3C//DTD SVG 1.1//EN"
 "http://www.w3.org/Graphics/SVG/1.1/DTD/svg11.dtd">
<!-- Generated by graphviz version 2.43.0 (0)
 -->
<!-- Title: dependency&#45;cruiser output Pages: 1 -->
<svg width="521pt" height="348pt"
 viewBox="0.00 0.00 521.00 348.00" xmlns="http://www.w3.org/2000/svg" xmlns:xlink="http://www.w3.org/1999/xlink">
<g id="graph0" class="graph" transform="scale(1 1) rotate(0) translate(4 344)">
<title>dependency&#45;cruiser output</title>
<polygon fill="white" stroke="transparent" points="-4,4 -4,-344 517,-344 517,4 -4,4"/>
<g id="clust1" class="cluster">
<title>cluster_src</title>
<path fill="#ffffff" stroke="black" stroke-width="2" d="M20,-26C20,-26 493,-26 493,-26 499,-26 505,-32 505,-38 505,-38 505,-320 505,-320 505,-326 499,-332 493,-332 493,-332 20,-332 20,-332 14,-332 8,-326 8,-320 8,-320 8,-38 8,-38 8,-32 14,-26 20,-26"/>
<text text-anchor="middle" x="256.5" y="-320.8" font-family="Helvetica,sans-Serif" font-weight="bold" font-size="9.00">src</text>
</g>
<g id="clust2" class="cluster">
<title>cluster_src/use&#45;cases</title>
<path fill="#ffffff" stroke="black" stroke-width="2" d="M28,-34C28,-34 485,-34 485,-34 491,-34 497,-40 497,-46 497,-46 497,-294 497,-294 497,-300 491,-306 485,-306 485,-306 28,-306 28,-306 22,-306 16,-300 16,-294 16,-294 16,-46 16,-46 16,-40 22,-34 28,-34"/>
<text text-anchor="middle" x="256.5" y="-294.8" font-family="Helvetica,sans-Serif" font-weight="bold" font-size="9.00">use&#45;cases</text>
</g>
<g id="clust3" class="cluster">
<title>cluster_src/use&#45;cases/entities</title>
<path fill="#ffffff" stroke="black" stroke-width="2" d="M314,-48C314,-48 477,-48 477,-48 483,-48 489,-54 489,-60 489,-60 489,-268 489,-268 489,-274 483,-280 477,-280 477,-280 314,-280 314,-280 308,-280 302,-274 302,-268 302,-268 302,-60 302,-60 302,-54 308,-48 314,-48"/>
<text text-anchor="middle" x="395.5" y="-268.8" font-family="Helvetica,sans-Serif" font-weight="bold" font-size="9.00">entities</text>
</g>
<g id="clust4" class="cluster">
<title>cluster_src/use&#45;cases/specs</title>
<path fill="#ffffff" stroke="black" stroke-width="2" d="M36,-101C36,-101 177,-101 177,-101 183,-101 189,-107 189,-113 189,-113 189,-201 189,-201 189,-207 183,-213 177,-213 177,-213 36,-213 36,-213 30,-213 24,-207 24,-201 24,-201 24,-113 24,-113 24,-107 30,-101 36,-101"/>
<text text-anchor="middle" x="106.5" y="-201.8" font-family="Helvetica,sans-Serif" font-weight="bold" font-size="9.00">specs</text>
</g>
<!-- assert -->
<g id="node1" class="node">
<title>assert</title>
<path fill="#ffffcc" stroke="grey" d="M266.5,-18C266.5,-18 224.5,-18 224.5,-18 221.5,-18 218.5,-15 218.5,-12 218.5,-12 218.5,-6 218.5,-6 218.5,-3 221.5,0 224.5,0 224.5,0 266.5,0 266.5,0 269.5,0 272.5,-3 272.5,-6 272.5,-6 272.5,-12 272.5,-12 272.5,-15 269.5,-18 266.5,-18"/>
<text text-anchor="middle" x="245.5" y="-6.8" font-family="Helvetica,sans-Serif" font-size="9.00" fill="grey">assert</text>
</g>
<!-- src/use&#45;cases/entities/brainstorm.ts -->
<g id="node2" class="node">
<title>src/use&#45;cases/entities/brainstorm.ts</title>
<g id="a_node2"><a xlink:href="src/use-cases/entities/brainstorm.ts" xlink:title="brainstorm.ts">
<path fill="#ddfeff" stroke="black" d="M390,-74C390,-74 325,-74 325,-74 322,-74 319,-71 319,-68 319,-68 319,-62 319,-62 319,-59 322,-56 325,-56 325,-56 390,-56 390,-56 393,-56 396,-59 396,-62 396,-62 396,-68 396,-68 396,-71 393,-74 390,-74"/>
<text text-anchor="middle" x="357.5" y="-62.8" font-family="Helvetica,sans-Serif" font-size="9.00">brainstorm.ts</text>
</a>
</g>
</g>
<!-- src/use&#45;cases/entities/location.ts -->
<g id="node3" class="node">
<title>src/use&#45;cases/entities/location.ts</title>
<g id="a_node3"><a xlink:href="src/use-cases/entities/location.ts" xlink:title="location.ts">
<path fill="#ddfeff" stroke="black" d="M475,-134C475,-134 424,-134 424,-134 421,-134 418,-131 418,-128 418,-128 418,-122 418,-122 418,-119 421,-116 424,-116 424,-116 475,-116 475,-116 478,-116 481,-119 481,-122 481,-122 481,-128 481,-128 481,-131 478,-134 475,-134"/>
<text text-anchor="middle" x="449.5" y="-122.8" font-family="Helvetica,sans-Serif" font-size="9.00">location.ts</text>
</a>
</g>
</g>
<!-- src/use&#45;cases/entities/member.ts -->
<g id="node4" class="node">
<title>src/use&#45;cases/entities/member.ts</title>
<g id="a_node4"><a xlink:href="src/use-cases/entities/member.ts" xlink:title="member.ts">
<path fill="#ddfeff" stroke="black" d="M384,-254C384,-254 331,-254 331,-254 328,-254 325,-251 325,-248 325,-248 325,-242 325,-242 325,-239 328,-236 331,-236 331,-236 384,-236 384,-236 387,-236 390,-239 390,-242 390,-242 390,-248 390,-248 390,-251 387,-254 384,-254"/>
<text text-anchor="middle" x="357.5" y="-242.8" font-family="Helvetica,sans-Serif" font-size="9.00">member.ts</text>
</a>
</g>
</g>
<!-- src/use&#45;cases/entities/not&#45;found&#45;error.ts -->
<g id="node5" class="node">
<title>src/use&#45;cases/entities/not&#45;found&#45;error.ts</title>
<g id="a_node5"><a xlink:href="src/use-cases/entities/not-found-error.ts" xlink:title="not&#45;found&#45;error.ts">
<path fill="#ddfeff" stroke="black" d="M399,-224C399,-224 316,-224 316,-224 313,-224 310,-221 310,-218 310,-218 310,-212 310,-212 310,-209 313,-206 316,-206 316,-206 399,-206 399,-206 402,-206 405,-209 405,-212 405,-212 405,-218 405,-218 405,-221 402,-224 399,-224"/>
<text text-anchor="middle" x="357.5" y="-212.8" font-family="Helvetica,sans-Serif" font-size="9.00">not&#45;found&#45;error.ts</text>
</a>
</g>
</g>
<!-- src/use&#45;cases/entities/quest.ts -->
<g id="node6" class="node">
<title>src/use&#45;cases/entities/quest.ts</title>
<g id="a_node6"><a xlink:href="src/use-cases/entities/quest.ts" xlink:title="quest.ts">
<path fill="#ccffcc" stroke="black" d="M378.5,-164C378.5,-164 336.5,-164 336.5,-164 333.5,-164 330.5,-161 330.5,-158 330.5,-158 330.5,-152 330.5,-152 330.5,-149 333.5,-146 336.5,-146 336.5,-146 378.5,-146 378.5,-146 381.5,-146 384.5,-149 384.5,-152 384.5,-152 384.5,-158 384.5,-158 384.5,-161 381.5,-164 378.5,-164"/>
<text text-anchor="middle" x="357.5" y="-152.8" font-family="Helvetica,sans-Serif" font-size="9.00">quest.ts</text>
</a>
</g>
</g>
<!-- src/use&#45;cases/entities/tribe.ts -->
<g id="node7" class="node">
<title>src/use&#45;cases/entities/tribe.ts</title>
<g id="a_node7"><a xlink:href="src/use-cases/entities/tribe.ts" xlink:title="tribe.ts">
<path fill="#ddfeff" stroke="black" d="M378.5,-134C378.5,-134 336.5,-134 336.5,-134 333.5,-134 330.5,-131 330.5,-128 330.5,-128 330.5,-122 330.5,-122 330.5,-119 333.5,-116 336.5,-116 336.5,-116 378.5,-116 378.5,-116 381.5,-116 384.5,-119 384.5,-122 384.5,-122 384.5,-128 384.5,-128 384.5,-131 381.5,-134 378.5,-134"/>
<text text-anchor="middle" x="357.5" y="-122.8" font-family="Helvetica,sans-Serif" font-size="9.00">tribe.ts</text>
</a>
</g>
</g>
<!-- src/use&#45;cases/entities/tribe.ts&#45;&gt;src/use&#45;cases/entities/location.ts -->
<g id="edge1" class="edge">
<title>src/use&#45;cases/entities/tribe.ts&#45;&gt;src/use&#45;cases/entities/location.ts</title>
<path fill="none" stroke="#000000" stroke-width="2" stroke-opacity="0.200000" d="M384.53,-125C392.97,-125 402.49,-125 411.57,-125"/>
<polygon fill="#000000" fill-opacity="0.200000" stroke="#000000" stroke-width="2" stroke-opacity="0.200000" points="411.76,-127.1 417.76,-125 411.76,-122.9 411.76,-127.1"/>
</g>
<!-- src/use&#45;cases/entities/ts&#45;utils.ts -->
<g id="node8" class="node">
<title>src/use&#45;cases/entities/ts&#45;utils.ts</title>
<g id="a_node8"><a xlink:href="src/use-cases/entities/ts-utils.ts" xlink:title="ts&#45;utils.ts">
<path fill="#ccffcc" stroke="black" d="M380.5,-104C380.5,-104 334.5,-104 334.5,-104 331.5,-104 328.5,-101 328.5,-98 328.5,-98 328.5,-92 328.5,-92 328.5,-89 331.5,-86 334.5,-86 334.5,-86 380.5,-86 380.5,-86 383.5,-86 386.5,-89 386.5,-92 386.5,-92 386.5,-98 386.5,-98 386.5,-101 383.5,-104 380.5,-104"/>
<text text-anchor="middle" x="357.5" y="-92.8" font-family="Helvetica,sans-Serif" font-size="9.00">ts&#45;utils.ts</text>
</a>
</g>
</g>
<!-- src/use&#45;cases/entities/user.ts -->
<g id="node9" class="node">
<title>src/use&#45;cases/entities/user.ts</title>
<g id="a_node9"><a xlink:href="src/use-cases/entities/user.ts" xlink:title="user.ts">
<path fill="#ddfeff" stroke="black" d="M378.5,-194C378.5,-194 336.5,-194 336.5,-194 333.5,-194 330.5,-191 330.5,-188 330.5,-188 330.5,-182 330.5,-182 330.5,-179 333.5,-176 336.5,-176 336.5,-176 378.5,-176 378.5,-176 381.5,-176 384.5,-179 384.5,-182 384.5,-182 384.5,-188 384.5,-188 384.5,-191 381.5,-194 378.5,-194"/>
<text text-anchor="middle" x="357.5" y="-182.8" font-family="Helvetica,sans-Serif" font-size="9.00">user.ts</text>
</a>
</g>
</g>
<!-- src/use&#45;cases/entities/user.ts&#45;&gt;src/use&#45;cases/entities/location.ts -->
<g id="edge2" class="edge">
<title>src/use&#45;cases/entities/user.ts&#45;&gt;src/use&#45;cases/entities/location.ts</title>
<path fill="none" stroke="#000000" stroke-width="2" stroke-opacity="0.200000" d="M384.59,-179.04C391.53,-176.82 398.81,-173.86 405,-170 418.04,-161.88 429.94,-149 437.99,-139.1"/>
<polygon fill="#000000" fill-opacity="0.200000" stroke="#000000" stroke-width="2" stroke-opacity="0.200000" points="439.76,-140.25 441.83,-134.24 436.46,-137.65 439.76,-140.25"/>
</g>
<!-- src/use&#45;cases/incarnate&#45;ideas.ts -->
<g id="node10" class="node">
<title>src/use&#45;cases/incarnate&#45;ideas.ts</title>
<g id="a_node10"><a xlink:href="src/use-cases/incarnate-ideas.ts" xlink:title="incarnate&#45;ideas.ts">
<path fill="#ddfeff" stroke="black" d="M288,-179C288,-179 203,-179 203,-179 200,-179 197,-176 197,-173 197,-173 197,-167 197,-167 197,-164 200,-161 203,-161 203,-161 288,-161 288,-161 291,-161 294,-164 294,-167 294,-167 294,-173 294,-173 294,-176 291,-179 288,-179"/>
<text text-anchor="middle" x="245.5" y="-167.8" font-family="Helvetica,sans-Serif" font-size="9.00">incarnate&#45;ideas.ts</text>
</a>
</g>
</g>
<!-- src/use&#45;cases/incarnate&#45;ideas.ts&#45;&gt;src/use&#45;cases/entities/brainstorm.ts -->
<g id="edge3" class="edge">
<title>src/use&#45;cases/incarnate&#45;ideas.ts&#45;&gt;src/use&#45;cases/entities/brainstorm.ts</title>
<path fill="none" stroke="#000000" stroke-width="2" stroke-opacity="0.200000" d="M270.07,-160.9C278.97,-156.28 288.31,-149.75 294,-141 308.91,-118.08 284.05,-100.62 302,-80 305.13,-76.41 309.02,-73.64 313.29,-71.51"/>
<polygon fill="#000000" fill-opacity="0.200000" stroke="#000000" stroke-width="2" stroke-opacity="0.200000" points="314.16,-73.42 318.86,-69.14 312.52,-69.56 314.16,-73.42"/>
</g>
<!-- src/use&#45;cases/incarnate&#45;ideas.ts&#45;&gt;src/use&#45;cases/entities/not&#45;found&#45;error.ts -->
<g id="edge4" class="edge">
<title>src/use&#45;cases/incarnate&#45;ideas.ts&#45;&gt;src/use&#45;cases/entities/not&#45;found&#45;error.ts</title>
<path fill="none" stroke="#000000" stroke-width="2" stroke-opacity="0.200000" d="M278.63,-179.04C284.08,-181.42 289.45,-184.37 294,-188 299.01,-191.99 296.8,-196.25 302,-200 303.59,-201.15 305.27,-202.21 307,-203.19"/>
<polygon fill="#000000" fill-opacity="0.200000" stroke="#000000" stroke-width="2" stroke-opacity="0.200000" points="306.07,-205.07 312.37,-205.89 307.96,-201.32 306.07,-205.07"/>
</g>
<!-- src/use&#45;cases/specs/incarnate&#45;quest&#45;ideas.spec.ts -->
<g id="node11" class="node">
<title>src/use&#45;cases/specs/incarnate&#45;quest&#45;ideas.spec.ts</title>
<g id="a_node11"><a xlink:href="src/use-cases/specs/incarnate-quest-ideas.spec.ts" xlink:title="incarnate&#45;quest&#45;ideas.spec.ts">
<path fill="#ddfeff" stroke="black" d="M175,-187C175,-187 38,-187 38,-187 35,-187 32,-184 32,-181 32,-181 32,-175 32,-175 32,-172 35,-169 38,-169 38,-169 175,-169 175,-169 178,-169 181,-172 181,-175 181,-175 181,-181 181,-181 181,-184 178,-187 175,-187"/>
<text text-anchor="middle" x="106.5" y="-175.8" font-family="Helvetica,sans-Serif" font-size="9.00">incarnate&#45;quest&#45;ideas.spec.ts</text>
</a>
</g>
</g>
<!-- src/use&#45;cases/specs/incarnate&#45;quest&#45;ideas.spec.ts&#45;&gt;src/use&#45;cases/entities/brainstorm.ts -->
<g id="edge5" class="edge">
<title>src/use&#45;cases/specs/incarnate&#45;quest&#45;ideas.spec.ts&#45;&gt;src/use&#45;cases/entities/brainstorm.ts</title>
<path fill="none" stroke="#000000" stroke-width="2" stroke-opacity="0.200000" d="M181.19,-169.6C184.02,-167.72 186.65,-165.53 189,-163 211.22,-139.1 174.46,-113.61 197,-90 204.95,-81.67 268.37,-73.74 312.8,-69.12"/>
<polygon fill="#000000" fill-opacity="0.200000" stroke="#000000" stroke-width="2" stroke-opacity="0.200000" points="313.19,-71.19 318.94,-68.49 312.76,-67.02 313.19,-71.19"/>
</g>
<!-- src/use&#45;cases/specs/incarnate&#45;quest&#45;ideas.spec.ts&#45;&gt;src/use&#45;cases/entities/member.ts -->
<g id="edge6" class="edge">
<title>src/use&#45;cases/specs/incarnate&#45;quest&#45;ideas.spec.ts&#45;&gt;src/use&#45;cases/entities/member.ts</title>
<path fill="none" stroke="#000000" stroke-width="2" stroke-opacity="0.200000" d="M116.92,-187.37C132.18,-201.84 163.97,-229.11 197,-240 236.84,-253.14 285.34,-252.49 318.33,-249.76"/>
<polygon fill="#000000" fill-opacity="0.200000" stroke="#000000" stroke-width="2" stroke-opacity="0.200000" points="318.92,-251.81 324.71,-249.19 318.55,-247.63 318.92,-251.81"/>
</g>
<!-- src/use&#45;cases/specs/incarnate&#45;quest&#45;ideas.spec.ts&#45;&gt;src/use&#45;cases/incarnate&#45;ideas.ts -->
<g id="edge7" class="edge">
<title>src/use&#45;cases/specs/incarnate&#45;quest&#45;ideas.spec.ts&#45;&gt;src/use&#45;cases/incarnate&#45;ideas.ts</title>
<path fill="none" stroke="#000000" stroke-width="2" stroke-opacity="0.200000" d="M181.21,-173.7C184.37,-173.51 187.52,-173.33 190.62,-173.15"/>
<polygon fill="#000000" fill-opacity="0.200000" stroke="#000000" stroke-width="2" stroke-opacity="0.200000" points="191.05,-175.22 196.92,-172.78 190.81,-171.03 191.05,-175.22"/>
</g>
<!-- src/use&#45;cases/specs/stranger&#45;list&#45;tribes.spec.ts -->
<g id="node12" class="node">
<title>src/use&#45;cases/specs/stranger&#45;list&#45;tribes.spec.ts</title>
<g id="a_node12"><a xlink:href="src/use-cases/specs/stranger-list-tribes.spec.ts" xlink:title="stranger&#45;list&#45;tribes.spec.ts">
<path fill="#ddfeff" stroke="black" d="M167.5,-127C167.5,-127 45.5,-127 45.5,-127 42.5,-127 39.5,-124 39.5,-121 39.5,-121 39.5,-115 39.5,-115 39.5,-112 42.5,-109 45.5,-109 45.5,-109 167.5,-109 167.5,-109 170.5,-109 173.5,-112 173.5,-115 173.5,-115 173.5,-121 173.5,-121 173.5,-124 170.5,-127 167.5,-127"/>
<text text-anchor="middle" x="106.5" y="-115.8" font-family="Helvetica,sans-Serif" font-size="9.00">stranger&#45;list&#45;tribes.spec.ts</text>
</a>
</g>
</g>
<!-- src/use&#45;cases/specs/stranger&#45;list&#45;tribes.spec.ts&#45;&gt;src/use&#45;cases/entities/location.ts -->
<g id="edge8" class="edge">
<title>src/use&#45;cases/specs/stranger&#45;list&#45;tribes.spec.ts&#45;&gt;src/use&#45;cases/entities/location.ts</title>
<path fill="none" stroke="#000000" stroke-width="2" stroke-opacity="0.200000" d="M115.77,-108.8C130.37,-93.34 162.43,-62.69 197,-51 240.79,-36.19 364.95,-26.93 405,-50 427.3,-62.85 439.22,-92 444.67,-109.93"/>
<polygon fill="#000000" fill-opacity="0.200000" stroke="#000000" stroke-width="2" stroke-opacity="0.200000" points="442.73,-110.79 446.4,-115.99 446.77,-109.64 442.73,-110.79"/>
</g>
<!-- src/use&#45;cases/specs/stranger&#45;list&#45;tribes.spec.ts&#45;&gt;src/use&#45;cases/entities/tribe.ts -->
<g id="edge9" class="edge">
<title>src/use&#45;cases/specs/stranger&#45;list&#45;tribes.spec.ts&#45;&gt;src/use&#45;cases/entities/tribe.ts</title>
<path fill="none" stroke="#000000" stroke-width="2" stroke-opacity="0.200000" d="M173.74,-109.24C209.48,-105.92 254.28,-104 294,-109 304.03,-110.26 314.76,-112.63 324.44,-115.15"/>
<polygon fill="#000000" fill-opacity="0.200000" stroke="#000000" stroke-width="2" stroke-opacity="0.200000" points="323.99,-117.2 330.32,-116.74 325.08,-113.15 323.99,-117.2"/>
</g>
<!-- src/use&#45;cases/specs/stranger&#45;list&#45;tribes.spec.ts&#45;&gt;src/use&#45;cases/entities/user.ts -->
<g id="edge10" class="edge">
<title>src/use&#45;cases/specs/stranger&#45;list&#45;tribes.spec.ts&#45;&gt;src/use&#45;cases/entities/user.ts</title>
<path fill="none" stroke="#000000" stroke-width="2" stroke-opacity="0.200000" d="M173.52,-125.85C178.95,-127.77 184.18,-130.12 189,-133 193.88,-135.92 192,-140.27 197,-143 235.05,-163.76 258.65,-127.93 294,-153 300.81,-157.83 295.61,-164.62 302,-170 308.34,-175.34 316.43,-178.79 324.43,-181.01"/>
<polygon fill="#000000" fill-opacity="0.200000" stroke="#000000" stroke-width="2" stroke-opacity="0.200000" points="324.16,-183.11 330.49,-182.49 325.16,-179.03 324.16,-183.11"/>
</g>
<!-- src/use&#45;cases/tribes&#45;list.ts -->
<g id="node13" class="node">
<title>src/use&#45;cases/tribes&#45;list.ts</title>
<g id="a_node13"><a xlink:href="src/use-cases/tribes-list.ts" xlink:title="tribes&#45;list.ts">
<path fill="#ddfeff" stroke="black" d="M274,-135C274,-135 217,-135 217,-135 214,-135 211,-132 211,-129 211,-129 211,-123 211,-123 211,-120 214,-117 217,-117 217,-117 274,-117 274,-117 277,-117 280,-120 280,-123 280,-123 280,-129 280,-129 280,-132 277,-135 274,-135"/>
<text text-anchor="middle" x="245.5" y="-123.8" font-family="Helvetica,sans-Serif" font-size="9.00">tribes&#45;list.ts</text>
</a>
</g>
</g>
<!-- src/use&#45;cases/specs/stranger&#45;list&#45;tribes.spec.ts&#45;&gt;src/use&#45;cases/tribes&#45;list.ts -->
<g id="edge11" class="edge">
<title>src/use&#45;cases/specs/stranger&#45;list&#45;tribes.spec.ts&#45;&gt;src/use&#45;cases/tribes&#45;list.ts</title>
<path fill="none" stroke="#000000" stroke-width="2" stroke-opacity="0.200000" d="M173.59,-121.86C184.14,-122.48 194.77,-123.1 204.47,-123.66"/>
<polygon fill="#000000" fill-opacity="0.200000" stroke="#000000" stroke-width="2" stroke-opacity="0.200000" points="204.59,-125.77 210.71,-124.03 204.84,-121.58 204.59,-125.77"/>
</g>
<!-- src/use&#45;cases/tribes&#45;list.ts&#45;&gt;src/use&#45;cases/entities/tribe.ts -->
<g id="edge17" class="edge">
<title>src/use&#45;cases/tribes&#45;list.ts&#45;&gt;src/use&#45;cases/entities/tribe.ts</title>
<path fill="none" stroke="#000000" stroke-width="2" stroke-opacity="0.200000" d="M280.1,-125.69C294.13,-125.57 310.35,-125.42 324.23,-125.29"/>
<polygon fill="#000000" fill-opacity="0.200000" stroke="#000000" stroke-width="2" stroke-opacity="0.200000" points="324.45,-127.39 330.43,-125.24 324.41,-123.19 324.45,-127.39"/>
</g>
<!-- src/use&#45;cases/tribes&#45;list.ts&#45;&gt;src/use&#45;cases/entities/user.ts -->
<g id="edge18" class="edge">
<title>src/use&#45;cases/tribes&#45;list.ts&#45;&gt;src/use&#45;cases/entities/user.ts</title>
<path fill="none" stroke="#000000" stroke-width="2" stroke-opacity="0.200000" d="M280.06,-134.24C285.24,-136.7 290.14,-139.88 294,-144 302.27,-152.82 293.32,-161.58 302,-170 308,-175.83 316.06,-179.44 324.12,-181.66"/>
<polygon fill="#000000" fill-opacity="0.200000" stroke="#000000" stroke-width="2" stroke-opacity="0.200000" points="323.94,-183.77 330.26,-183.1 324.9,-179.69 323.94,-183.77"/>
</g>
<!-- src/use&#45;cases/specs/voting.spec.ts -->
<g id="node14" class="node">
<title>src/use&#45;cases/specs/voting.spec.ts</title>
<g id="a_node14"><a xlink:href="src/use-cases/specs/voting.spec.ts" xlink:title="voting.spec.ts">
<path fill="#ddfeff" stroke="black" d="M140.5,-157C140.5,-157 72.5,-157 72.5,-157 69.5,-157 66.5,-154 66.5,-151 66.5,-151 66.5,-145 66.5,-145 66.5,-142 69.5,-139 72.5,-139 72.5,-139 140.5,-139 140.5,-139 143.5,-139 146.5,-142 146.5,-145 146.5,-145 146.5,-151 146.5,-151 146.5,-154 143.5,-157 140.5,-157"/>
<text text-anchor="middle" x="106.5" y="-145.8" font-family="Helvetica,sans-Serif" font-size="9.00">voting.spec.ts</text>
</a>
</g>
</g>
<!-- src/use&#45;cases/specs/voting.spec.ts&#45;&gt;assert -->
<g id="edge16" class="edge">
<title>src/use&#45;cases/specs/voting.spec.ts&#45;&gt;assert</title>
<path fill="none" stroke="#000000" stroke-dasharray="5,2" stroke-opacity="0.200000" d="M146.67,-150.18C161.93,-148.88 178.3,-144.46 189,-133 199.69,-121.56 190.65,-77.31 197,-63 204.11,-46.97 217.72,-32.27 228.56,-22.27"/>
<polygon fill="#000000" fill-opacity="0.200000" stroke="#000000" stroke-opacity="0.200000" points="230.24,-23.58 233.31,-18.02 227.44,-20.45 230.24,-23.58"/>
</g>
<!-- src/use&#45;cases/specs/voting.spec.ts&#45;&gt;src/use&#45;cases/entities/brainstorm.ts -->
<g id="edge12" class="edge">
<title>src/use&#45;cases/specs/voting.spec.ts&#45;&gt;src/use&#45;cases/entities/brainstorm.ts</title>
<path fill="none" stroke="#000000" stroke-width="2" stroke-opacity="0.200000" d="M146.87,-149.93C161.98,-148.56 178.18,-144.15 189,-133 205.29,-116.22 180.04,-97.09 197,-81 227.35,-52.21 277.04,-51.71 312.9,-56.21"/>
<polygon fill="#000000" fill-opacity="0.200000" stroke="#000000" stroke-width="2" stroke-opacity="0.200000" points="312.75,-58.31 318.98,-57.03 313.32,-54.14 312.75,-58.31"/>
</g>
<!-- src/use&#45;cases/specs/voting.spec.ts&#45;&gt;src/use&#45;cases/entities/member.ts -->
<g id="edge13" class="edge">
<title>src/use&#45;cases/specs/voting.spec.ts&#45;&gt;src/use&#45;cases/entities/member.ts</title>
<path fill="none" stroke="#000000" stroke-width="2" stroke-opacity="0.200000" d="M146.65,-145.84C161.91,-147.14 178.28,-151.56 189,-163 209.81,-185.2 175.17,-209.8 197,-231 199.17,-233.11 272.23,-238.83 318.7,-242.27"/>
<polygon fill="#000000" fill-opacity="0.200000" stroke="#000000" stroke-width="2" stroke-opacity="0.200000" points="318.65,-244.37 324.79,-242.72 318.96,-240.18 318.65,-244.37"/>
</g>
<!-- src/use&#45;cases/specs/voting.spec.ts&#45;&gt;src/use&#45;cases/entities/not&#45;found&#45;error.ts -->
<g id="edge14" class="edge">
<title>src/use&#45;cases/specs/voting.spec.ts&#45;&gt;src/use&#45;cases/entities/not&#45;found&#45;error.ts</title>
<path fill="none" stroke="#000000" stroke-width="2" stroke-opacity="0.200000" d="M146.8,-147.11C161.54,-148.7 177.49,-153 189,-163 197.49,-170.38 188.23,-179.97 197,-187 213.91,-200.56 272.9,-192.04 294,-197 297.7,-197.87 298.39,-198.83 302,-200 306.46,-201.45 311.16,-202.88 315.85,-204.25"/>
<polygon fill="#000000" fill-opacity="0.200000" stroke="#000000" stroke-width="2" stroke-opacity="0.200000" points="315.42,-206.31 321.76,-205.94 316.58,-202.27 315.42,-206.31"/>
</g>
<!-- src/use&#45;cases/voting.ts -->
<g id="node15" class="node">
<title>src/use&#45;cases/voting.ts</title>
<g id="a_node15"><a xlink:href="src/use-cases/voting.ts" xlink:title="voting.ts">
<path fill="#ddfeff" stroke="black" d="M267.5,-223C267.5,-223 223.5,-223 223.5,-223 220.5,-223 217.5,-220 217.5,-217 217.5,-217 217.5,-211 217.5,-211 217.5,-208 220.5,-205 223.5,-205 223.5,-205 267.5,-205 267.5,-205 270.5,-205 273.5,-208 273.5,-211 273.5,-211 273.5,-217 273.5,-217 273.5,-220 270.5,-223 267.5,-223"/>
<text text-anchor="middle" x="245.5" y="-211.8" font-family="Helvetica,sans-Serif" font-size="9.00">voting.ts</text>
</a>
</g>
</g>
<!-- src/use&#45;cases/specs/voting.spec.ts&#45;&gt;src/use&#45;cases/voting.ts -->
<g id="edge15" class="edge">
<title>src/use&#45;cases/specs/voting.spec.ts&#45;&gt;src/use&#45;cases/voting.ts</title>
<path fill="none" stroke="#000000" stroke-width="2" stroke-opacity="0.200000" d="M146.82,-146.58C161.74,-148.07 177.82,-152.42 189,-163 199.96,-173.37 187.01,-184.69 197,-196 200.86,-200.37 205.89,-203.68 211.23,-206.19"/>
<polygon fill="#000000" fill-opacity="0.200000" stroke="#000000" stroke-width="2" stroke-opacity="0.200000" points="210.76,-208.27 217.11,-208.62 212.36,-204.39 210.76,-208.27"/>
</g>
<!-- src/use&#45;cases/voting.ts&#45;&gt;src/use&#45;cases/entities/brainstorm.ts -->
<g id="edge19" class="edge">
<title>src/use&#45;cases/voting.ts&#45;&gt;src/use&#45;cases/entities/brainstorm.ts</title>
<path fill="none" stroke="#000000" stroke-width="2" stroke-opacity="0.200000" d="M270.8,-204.8C279.59,-200.21 288.65,-193.73 294,-185 306.22,-165.04 287.12,-98.06 302,-80 305.07,-76.27 308.98,-73.42 313.28,-71.25"/>
<polygon fill="#000000" fill-opacity="0.200000" stroke="#000000" stroke-width="2" stroke-opacity="0.200000" points="314.22,-73.14 318.91,-68.85 312.57,-69.27 314.22,-73.14"/>
</g>
<!-- src/use&#45;cases/voting.ts&#45;&gt;src/use&#45;cases/entities/member.ts -->
<g id="edge20" class="edge">
<title>src/use&#45;cases/voting.ts&#45;&gt;src/use&#45;cases/entities/member.ts</title>
<path fill="none" stroke="#000000" stroke-width="2" stroke-opacity="0.200000" d="M273.58,-221.88C282.61,-224.49 292.73,-227.39 302,-230 307.41,-231.52 313.13,-233.12 318.75,-234.67"/>
<polygon fill="#000000" fill-opacity="0.200000" stroke="#000000" stroke-width="2" stroke-opacity="0.200000" points="318.44,-236.77 324.78,-236.34 319.56,-232.72 318.44,-236.77"/>
</g>
<!-- src/use&#45;cases/voting.ts&#45;&gt;src/use&#45;cases/entities/not&#45;found&#45;error.ts -->
<g id="edge21" class="edge">
<title>src/use&#45;cases/voting.ts&#45;&gt;src/use&#45;cases/entities/not&#45;found&#45;error.ts</title>
<path fill="none" stroke="#000000" stroke-width="2" stroke-opacity="0.200000" d="M273.69,-214.25C282.84,-214.33 293.38,-214.43 303.81,-214.52"/>
<polygon fill="#000000" fill-opacity="0.200000" stroke="#000000" stroke-width="2" stroke-opacity="0.200000" points="303.91,-216.62 309.92,-214.58 303.94,-212.42 303.91,-216.62"/>
</g>
</g>
</svg>
