<?xml version="1.0" encoding="UTF-8" standalone="no"?>
<!DOCTYPE svg PUBLIC "-//W3C//DTD SVG 1.1//EN"
 "http://www.w3.org/Graphics/SVG/1.1/DTD/svg11.dtd">
<!-- Generated by graphviz version 2.43.0 (0)
 -->
<!-- Title: dependency&#45;cruiser output Pages: 1 -->
<svg width="521pt" height="324pt"
 viewBox="0.00 0.00 521.00 324.00" xmlns="http://www.w3.org/2000/svg" xmlns:xlink="http://www.w3.org/1999/xlink">
<g id="graph0" class="graph" transform="scale(1 1) rotate(0) translate(4 320)">
<title>dependency&#45;cruiser output</title>
<polygon fill="white" stroke="transparent" points="-4,4 -4,-320 517,-320 517,4 -4,4"/>
<g id="clust1" class="cluster">
<title>cluster_src</title>
<path fill="#ffffff" stroke="black" stroke-width="2" d="M20,-8C20,-8 493,-8 493,-8 499,-8 505,-14 505,-20 505,-20 505,-296 505,-296 505,-302 499,-308 493,-308 493,-308 20,-308 20,-308 14,-308 8,-302 8,-296 8,-296 8,-20 8,-20 8,-14 14,-8 20,-8"/>
<text text-anchor="middle" x="256.5" y="-296.8" font-family="Helvetica,sans-Serif" font-weight="bold" font-size="9.00">src</text>
</g>
<g id="clust2" class="cluster">
<title>cluster_src/use&#45;cases</title>
<path fill="#ffffff" stroke="black" stroke-width="2" d="M28,-16C28,-16 485,-16 485,-16 491,-16 497,-22 497,-28 497,-28 497,-270 497,-270 497,-276 491,-282 485,-282 485,-282 28,-282 28,-282 22,-282 16,-276 16,-270 16,-270 16,-28 16,-28 16,-22 22,-16 28,-16"/>
<text text-anchor="middle" x="256.5" y="-270.8" font-family="Helvetica,sans-Serif" font-weight="bold" font-size="9.00">use&#45;cases</text>
</g>
<g id="clust3" class="cluster">
<title>cluster_src/use&#45;cases/entities</title>
<path fill="#ffffff" stroke="black" stroke-width="2" d="M314,-24C314,-24 477,-24 477,-24 483,-24 489,-30 489,-36 489,-36 489,-244 489,-244 489,-250 483,-256 477,-256 477,-256 314,-256 314,-256 308,-256 302,-250 302,-244 302,-244 302,-36 302,-36 302,-30 308,-24 314,-24"/>
<text text-anchor="middle" x="395.5" y="-244.8" font-family="Helvetica,sans-Serif" font-weight="bold" font-size="9.00">entities</text>
</g>
<g id="clust4" class="cluster">
<title>cluster_src/use&#45;cases/specs</title>
<path fill="#ffffff" stroke="black" stroke-width="2" d="M36,-134C36,-134 177,-134 177,-134 183,-134 189,-140 189,-146 189,-146 189,-204 189,-204 189,-210 183,-216 177,-216 177,-216 36,-216 36,-216 30,-216 24,-210 24,-204 24,-204 24,-146 24,-146 24,-140 30,-134 36,-134"/>
<text text-anchor="middle" x="106.5" y="-204.8" font-family="Helvetica,sans-Serif" font-weight="bold" font-size="9.00">specs</text>
</g>
<!-- src/use&#45;cases/entities/brainstorm.ts -->
<g id="node1" class="node">
<title>src/use&#45;cases/entities/brainstorm.ts</title>
<g id="a_node1"><a xlink:href="src/use-cases/entities/brainstorm.ts" xlink:title="brainstorm.ts">
<path fill="#ddfeff" stroke="black" d="M390,-110C390,-110 325,-110 325,-110 322,-110 319,-107 319,-104 319,-104 319,-98 319,-98 319,-95 322,-92 325,-92 325,-92 390,-92 390,-92 393,-92 396,-95 396,-98 396,-98 396,-104 396,-104 396,-107 393,-110 390,-110"/>
<text text-anchor="middle" x="357.5" y="-98.8" font-family="Helvetica,sans-Serif" font-size="9.00">brainstorm.ts</text>
</a>
</g>
</g>
<!-- src/use&#45;cases/entities/location.ts -->
<g id="node2" class="node">
<title>src/use&#45;cases/entities/location.ts</title>
<g id="a_node2"><a xlink:href="src/use-cases/entities/location.ts" xlink:title="location.ts">
<path fill="#ddfeff" stroke="black" d="M475,-230C475,-230 424,-230 424,-230 421,-230 418,-227 418,-224 418,-224 418,-218 418,-218 418,-215 421,-212 424,-212 424,-212 475,-212 475,-212 478,-212 481,-215 481,-218 481,-218 481,-224 481,-224 481,-227 478,-230 475,-230"/>
<text text-anchor="middle" x="449.5" y="-218.8" font-family="Helvetica,sans-Serif" font-size="9.00">location.ts</text>
</a>
</g>
</g>
<!-- src/use&#45;cases/entities/member.ts -->
<g id="node3" class="node">
<title>src/use&#45;cases/entities/member.ts</title>
<g id="a_node3"><a xlink:href="src/use-cases/entities/member.ts" xlink:title="member.ts">
<path fill="#ddfeff" stroke="black" d="M384,-50C384,-50 331,-50 331,-50 328,-50 325,-47 325,-44 325,-44 325,-38 325,-38 325,-35 328,-32 331,-32 331,-32 384,-32 384,-32 387,-32 390,-35 390,-38 390,-38 390,-44 390,-44 390,-47 387,-50 384,-50"/>
<text text-anchor="middle" x="357.5" y="-38.8" font-family="Helvetica,sans-Serif" font-size="9.00">member.ts</text>
</a>
</g>
</g>
<!-- src/use&#45;cases/entities/not&#45;found&#45;error.ts -->
<g id="node4" class="node">
<title>src/use&#45;cases/entities/not&#45;found&#45;error.ts</title>
<g id="a_node4"><a xlink:href="src/use-cases/entities/not-found-error.ts" xlink:title="not&#45;found&#45;error.ts">
<path fill="#ddfeff" stroke="black" d="M399,-170C399,-170 316,-170 316,-170 313,-170 310,-167 310,-164 310,-164 310,-158 310,-158 310,-155 313,-152 316,-152 316,-152 399,-152 399,-152 402,-152 405,-155 405,-158 405,-158 405,-164 405,-164 405,-167 402,-170 399,-170"/>
<text text-anchor="middle" x="357.5" y="-158.8" font-family="Helvetica,sans-Serif" font-size="9.00">not&#45;found&#45;error.ts</text>
</a>
</g>
</g>
<!-- src/use&#45;cases/entities/quest.ts -->
<g id="node5" class="node">
<title>src/use&#45;cases/entities/quest.ts</title>
<g id="a_node5"><a xlink:href="src/use-cases/entities/quest.ts" xlink:title="quest.ts">
<path fill="#ccffcc" stroke="black" d="M378.5,-140C378.5,-140 336.5,-140 336.5,-140 333.5,-140 330.5,-137 330.5,-134 330.5,-134 330.5,-128 330.5,-128 330.5,-125 333.5,-122 336.5,-122 336.5,-122 378.5,-122 378.5,-122 381.5,-122 384.5,-125 384.5,-128 384.5,-128 384.5,-134 384.5,-134 384.5,-137 381.5,-140 378.5,-140"/>
<text text-anchor="middle" x="357.5" y="-128.8" font-family="Helvetica,sans-Serif" font-size="9.00">quest.ts</text>
</a>
</g>
</g>
<!-- src/use&#45;cases/entities/tribe.ts -->
<g id="node6" class="node">
<title>src/use&#45;cases/entities/tribe.ts</title>
<g id="a_node6"><a xlink:href="src/use-cases/entities/tribe.ts" xlink:title="tribe.ts">
<path fill="#ddfeff" stroke="black" d="M378.5,-200C378.5,-200 336.5,-200 336.5,-200 333.5,-200 330.5,-197 330.5,-194 330.5,-194 330.5,-188 330.5,-188 330.5,-185 333.5,-182 336.5,-182 336.5,-182 378.5,-182 378.5,-182 381.5,-182 384.5,-185 384.5,-188 384.5,-188 384.5,-194 384.5,-194 384.5,-197 381.5,-200 378.5,-200"/>
<text text-anchor="middle" x="357.5" y="-188.8" font-family="Helvetica,sans-Serif" font-size="9.00">tribe.ts</text>
</a>
</g>
</g>
<!-- src/use&#45;cases/entities/tribe.ts&#45;&gt;src/use&#45;cases/entities/location.ts -->
<g id="edge1" class="edge">
<title>src/use&#45;cases/entities/tribe.ts&#45;&gt;src/use&#45;cases/entities/location.ts</title>
<path fill="none" stroke="#000000" stroke-width="2" stroke-opacity="0.200000" d="M384.6,-199.32C391.26,-201.47 398.4,-203.8 405,-206 408.77,-207.26 412.71,-208.59 416.62,-209.93"/>
<polygon fill="#000000" fill-opacity="0.200000" stroke="#000000" stroke-width="2" stroke-opacity="0.200000" points="415.95,-211.91 422.31,-211.87 417.31,-207.94 415.95,-211.91"/>
</g>
<!-- src/use&#45;cases/entities/ts&#45;utils.ts -->
<g id="node7" class="node">
<title>src/use&#45;cases/entities/ts&#45;utils.ts</title>
<g id="a_node7"><a xlink:href="src/use-cases/entities/ts-utils.ts" xlink:title="ts&#45;utils.ts">
<path fill="#ccffcc" stroke="black" d="M380.5,-80C380.5,-80 334.5,-80 334.5,-80 331.5,-80 328.5,-77 328.5,-74 328.5,-74 328.5,-68 328.5,-68 328.5,-65 331.5,-62 334.5,-62 334.5,-62 380.5,-62 380.5,-62 383.5,-62 386.5,-65 386.5,-68 386.5,-68 386.5,-74 386.5,-74 386.5,-77 383.5,-80 380.5,-80"/>
<text text-anchor="middle" x="357.5" y="-68.8" font-family="Helvetica,sans-Serif" font-size="9.00">ts&#45;utils.ts</text>
</a>
</g>
</g>
<!-- src/use&#45;cases/entities/user.ts -->
<g id="node8" class="node">
<title>src/use&#45;cases/entities/user.ts</title>
<g id="a_node8"><a xlink:href="src/use-cases/entities/user.ts" xlink:title="user.ts">
<path fill="#ddfeff" stroke="black" d="M378.5,-230C378.5,-230 336.5,-230 336.5,-230 333.5,-230 330.5,-227 330.5,-224 330.5,-224 330.5,-218 330.5,-218 330.5,-215 333.5,-212 336.5,-212 336.5,-212 378.5,-212 378.5,-212 381.5,-212 384.5,-215 384.5,-218 384.5,-218 384.5,-224 384.5,-224 384.5,-227 381.5,-230 378.5,-230"/>
<text text-anchor="middle" x="357.5" y="-218.8" font-family="Helvetica,sans-Serif" font-size="9.00">user.ts</text>
</a>
</g>
</g>
<!-- src/use&#45;cases/entities/user.ts&#45;&gt;src/use&#45;cases/entities/location.ts -->
<g id="edge2" class="edge">
<title>src/use&#45;cases/entities/user.ts&#45;&gt;src/use&#45;cases/entities/location.ts</title>
<path fill="none" stroke="#000000" stroke-width="2" stroke-opacity="0.200000" d="M384.53,-221C392.97,-221 402.49,-221 411.57,-221"/>
<polygon fill="#000000" fill-opacity="0.200000" stroke="#000000" stroke-width="2" stroke-opacity="0.200000" points="411.76,-223.1 417.76,-221 411.76,-218.9 411.76,-223.1"/>
</g>
<!-- src/use&#45;cases/incarnate&#45;ideas.ts -->
<g id="node9" class="node">
<title>src/use&#45;cases/incarnate&#45;ideas.ts</title>
<g id="a_node9"><a xlink:href="src/use-cases/incarnate-ideas.ts" xlink:title="incarnate&#45;ideas.ts">
<path fill="#ddfeff" stroke="black" d="M288,-160C288,-160 203,-160 203,-160 200,-160 197,-157 197,-154 197,-154 197,-148 197,-148 197,-145 200,-142 203,-142 203,-142 288,-142 288,-142 291,-142 294,-145 294,-148 294,-148 294,-154 294,-154 294,-157 291,-160 288,-160"/>
<text text-anchor="middle" x="245.5" y="-148.8" font-family="Helvetica,sans-Serif" font-size="9.00">incarnate&#45;ideas.ts</text>
</a>
</g>
</g>
<!-- src/use&#45;cases/incarnate&#45;ideas.ts&#45;&gt;src/use&#45;cases/entities/brainstorm.ts -->
<g id="edge3" class="edge">
<title>src/use&#45;cases/incarnate&#45;ideas.ts&#45;&gt;src/use&#45;cases/entities/brainstorm.ts</title>
<path fill="none" stroke="#000000" stroke-width="2" stroke-opacity="0.200000" d="M260.99,-141.85C277.34,-131.52 301.72,-116.12 302,-116 305.48,-114.47 309.15,-113.05 312.88,-111.76"/>
<polygon fill="#000000" fill-opacity="0.200000" stroke="#000000" stroke-width="2" stroke-opacity="0.200000" points="313.72,-113.69 318.76,-109.82 312.4,-109.7 313.72,-113.69"/>
</g>
<!-- src/use&#45;cases/incarnate&#45;ideas.ts&#45;&gt;src/use&#45;cases/entities/not&#45;found&#45;error.ts -->
<g id="edge4" class="edge">
<title>src/use&#45;cases/incarnate&#45;ideas.ts&#45;&gt;src/use&#45;cases/entities/not&#45;found&#45;error.ts</title>
<path fill="none" stroke="#000000" stroke-width="2" stroke-opacity="0.200000" d="M294.11,-155.33C297.21,-155.61 300.35,-155.9 303.47,-156.18"/>
<polygon fill="#000000" fill-opacity="0.200000" stroke="#000000" stroke-width="2" stroke-opacity="0.200000" points="303.7,-158.31 309.86,-156.76 304.08,-154.13 303.7,-158.31"/>
</g>
<!-- src/use&#45;cases/specs/incarnate&#45;quest&#45;ideas.spec.ts -->
<g id="node10" class="node">
<title>src/use&#45;cases/specs/incarnate&#45;quest&#45;ideas.spec.ts</title>
<g id="a_node10"><a xlink:href="src/use-cases/specs/incarnate-quest-ideas.spec.ts" xlink:title="incarnate&#45;quest&#45;ideas.spec.ts">
<path fill="#ddfeff" stroke="black" d="M175,-160C175,-160 38,-160 38,-160 35,-160 32,-157 32,-154 32,-154 32,-148 32,-148 32,-145 35,-142 38,-142 38,-142 175,-142 175,-142 178,-142 181,-145 181,-148 181,-148 181,-154 181,-154 181,-157 178,-160 175,-160"/>
<text text-anchor="middle" x="106.5" y="-148.8" font-family="Helvetica,sans-Serif" font-size="9.00">incarnate&#45;quest&#45;ideas.spec.ts</text>
</a>
</g>
</g>
<!-- src/use&#45;cases/specs/incarnate&#45;quest&#45;ideas.spec.ts&#45;&gt;src/use&#45;cases/entities/brainstorm.ts -->
<g id="edge5" class="edge">
<title>src/use&#45;cases/specs/incarnate&#45;quest&#45;ideas.spec.ts&#45;&gt;src/use&#45;cases/entities/brainstorm.ts</title>
<path fill="none" stroke="#000000" stroke-width="2" stroke-opacity="0.200000" d="M131.48,-141.91C149.31,-135.47 174.38,-127.11 197,-122 235.57,-113.29 280.25,-107.79 312.5,-104.62"/>
<polygon fill="#000000" fill-opacity="0.200000" stroke="#000000" stroke-width="2" stroke-opacity="0.200000" points="313,-106.68 318.78,-104.01 312.6,-102.5 313,-106.68"/>
</g>
<!-- src/use&#45;cases/specs/incarnate&#45;quest&#45;ideas.spec.ts&#45;&gt;src/use&#45;cases/entities/member.ts -->
<g id="edge6" class="edge">
<title>src/use&#45;cases/specs/incarnate&#45;quest&#45;ideas.spec.ts&#45;&gt;src/use&#45;cases/entities/member.ts</title>
<path fill="none" stroke="#000000" stroke-width="2" stroke-opacity="0.200000" d="M123.12,-141.89C155.49,-123.36 232.68,-80.89 302,-56 307.36,-54.08 313.09,-52.25 318.74,-50.59"/>
<polygon fill="#000000" fill-opacity="0.200000" stroke="#000000" stroke-width="2" stroke-opacity="0.200000" points="319.64,-52.51 324.83,-48.84 318.48,-48.48 319.64,-52.51"/>
</g>
<!-- src/use&#45;cases/specs/incarnate&#45;quest&#45;ideas.spec.ts&#45;&gt;src/use&#45;cases/incarnate&#45;ideas.ts -->
<g id="edge7" class="edge">
<title>src/use&#45;cases/specs/incarnate&#45;quest&#45;ideas.spec.ts&#45;&gt;src/use&#45;cases/incarnate&#45;ideas.ts</title>
<path fill="none" stroke="#000000" stroke-width="2" stroke-opacity="0.200000" d="M181.21,-151C184.37,-151 187.52,-151 190.62,-151"/>
<polygon fill="#000000" fill-opacity="0.200000" stroke="#000000" stroke-width="2" stroke-opacity="0.200000" points="190.92,-153.1 196.92,-151 190.92,-148.9 190.92,-153.1"/>
</g>
<!-- src/use&#45;cases/specs/stranger&#45;list&#45;tribes.spec.ts -->
<g id="node11" class="node">
<title>src/use&#45;cases/specs/stranger&#45;list&#45;tribes.spec.ts</title>
<g id="a_node11"><a xlink:href="src/use-cases/specs/stranger-list-tribes.spec.ts" xlink:title="stranger&#45;list&#45;tribes.spec.ts">
<path fill="#ddfeff" stroke="black" d="M167.5,-190C167.5,-190 45.5,-190 45.5,-190 42.5,-190 39.5,-187 39.5,-184 39.5,-184 39.5,-178 39.5,-178 39.5,-175 42.5,-172 45.5,-172 45.5,-172 167.5,-172 167.5,-172 170.5,-172 173.5,-175 173.5,-178 173.5,-178 173.5,-184 173.5,-184 173.5,-187 170.5,-190 167.5,-190"/>
<text text-anchor="middle" x="106.5" y="-178.8" font-family="Helvetica,sans-Serif" font-size="9.00">stranger&#45;list&#45;tribes.spec.ts</text>
</a>
</g>
</g>
<!-- src/use&#45;cases/specs/stranger&#45;list&#45;tribes.spec.ts&#45;&gt;src/use&#45;cases/entities/location.ts -->
<g id="edge8" class="edge">
<title>src/use&#45;cases/specs/stranger&#45;list&#45;tribes.spec.ts&#45;&gt;src/use&#45;cases/entities/location.ts</title>
<path fill="none" stroke="#000000" stroke-width="2" stroke-opacity="0.200000" d="M123.07,-190.17C140.48,-199.97 169.79,-215.15 197,-223 285.99,-248.68 313.65,-251.31 405,-236 410.21,-235.13 415.63,-233.7 420.81,-232.07"/>
<polygon fill="#000000" fill-opacity="0.200000" stroke="#000000" stroke-width="2" stroke-opacity="0.200000" points="421.72,-233.98 426.74,-230.09 420.38,-230 421.72,-233.98"/>
</g>
<!-- src/use&#45;cases/specs/stranger&#45;list&#45;tribes.spec.ts&#45;&gt;src/use&#45;cases/entities/tribe.ts -->
<g id="edge9" class="edge">
<title>src/use&#45;cases/specs/stranger&#45;list&#45;tribes.spec.ts&#45;&gt;src/use&#45;cases/entities/tribe.ts</title>
<path fill="none" stroke="#000000" stroke-width="2" stroke-opacity="0.200000" d="M173.62,-179.14C209.32,-178.7 254.12,-179.04 294,-182 303.86,-182.73 314.54,-184.07 324.23,-185.49"/>
<polygon fill="#000000" fill-opacity="0.200000" stroke="#000000" stroke-width="2" stroke-opacity="0.200000" points="324.19,-187.61 330.44,-186.43 324.82,-183.45 324.19,-187.61"/>
</g>
<!-- src/use&#45;cases/specs/stranger&#45;list&#45;tribes.spec.ts&#45;&gt;src/use&#45;cases/entities/user.ts -->
<g id="edge10" class="edge">
<title>src/use&#45;cases/specs/stranger&#45;list&#45;tribes.spec.ts&#45;&gt;src/use&#45;cases/entities/user.ts</title>
<path fill="none" stroke="#000000" stroke-width="2" stroke-opacity="0.200000" d="M125.45,-190.13C143.14,-198.62 171.18,-210.71 197,-216 240.38,-224.89 291.77,-224.63 324.26,-223.18"/>
<polygon fill="#000000" fill-opacity="0.200000" stroke="#000000" stroke-width="2" stroke-opacity="0.200000" points="324.6,-225.26 330.5,-222.87 324.4,-221.07 324.6,-225.26"/>
</g>
<!-- src/use&#45;cases/tribes&#45;list.ts -->
<g id="node12" class="node">
<title>src/use&#45;cases/tribes&#45;list.ts</title>
<g id="a_node12"><a xlink:href="src/use-cases/tribes-list.ts" xlink:title="tribes&#45;list.ts">
<path fill="#ddfeff" stroke="black" d="M274,-208C274,-208 217,-208 217,-208 214,-208 211,-205 211,-202 211,-202 211,-196 211,-196 211,-193 214,-190 217,-190 217,-190 274,-190 274,-190 277,-190 280,-193 280,-196 280,-196 280,-202 280,-202 280,-205 277,-208 274,-208"/>
<text text-anchor="middle" x="245.5" y="-196.8" font-family="Helvetica,sans-Serif" font-size="9.00">tribes&#45;list.ts</text>
</a>
</g>
</g>
<!-- src/use&#45;cases/specs/stranger&#45;list&#45;tribes.spec.ts&#45;&gt;src/use&#45;cases/tribes&#45;list.ts -->
<g id="edge11" class="edge">
<title>src/use&#45;cases/specs/stranger&#45;list&#45;tribes.spec.ts&#45;&gt;src/use&#45;cases/tribes&#45;list.ts</title>
<path fill="none" stroke="#000000" stroke-width="2" stroke-opacity="0.200000" d="M173.59,-189.68C184.25,-191.08 194.98,-192.49 204.75,-193.78"/>
<polygon fill="#000000" fill-opacity="0.200000" stroke="#000000" stroke-width="2" stroke-opacity="0.200000" points="204.48,-195.86 210.71,-194.56 205.03,-191.7 204.48,-195.86"/>
</g>
<!-- src/use&#45;cases/tribes&#45;list.ts&#45;&gt;src/use&#45;cases/entities/tribe.ts -->
<g id="edge12" class="edge">
<title>src/use&#45;cases/tribes&#45;list.ts&#45;&gt;src/use&#45;cases/entities/tribe.ts</title>
<path fill="none" stroke="#000000" stroke-width="2" stroke-opacity="0.200000" d="M280.1,-196.56C294.13,-195.54 310.35,-194.36 324.23,-193.35"/>
<polygon fill="#000000" fill-opacity="0.200000" stroke="#000000" stroke-width="2" stroke-opacity="0.200000" points="324.6,-195.43 330.43,-192.9 324.29,-191.24 324.6,-195.43"/>
</g>
<!-- src/use&#45;cases/tribes&#45;list.ts&#45;&gt;src/use&#45;cases/entities/user.ts -->
<g id="edge13" class="edge">
<title>src/use&#45;cases/tribes&#45;list.ts&#45;&gt;src/use&#45;cases/entities/user.ts</title>
<path fill="none" stroke="#000000" stroke-width="2" stroke-opacity="0.200000" d="M280.1,-205.72C294.13,-208.53 310.35,-211.77 324.23,-214.55"/>
<polygon fill="#000000" fill-opacity="0.200000" stroke="#000000" stroke-width="2" stroke-opacity="0.200000" points="324.14,-216.67 330.43,-215.79 324.96,-212.55 324.14,-216.67"/>
</g>
</g>
</svg>
