<?xml version="1.0" encoding="UTF-8" standalone="no"?>
<!DOCTYPE svg PUBLIC "-//W3C//DTD SVG 1.1//EN"
 "http://www.w3.org/Graphics/SVG/1.1/DTD/svg11.dtd">
<!-- Generated by graphviz version 2.43.0 (0)
 -->
<!-- Title: dependency&#45;cruiser output Pages: 1 -->
<svg width="267pt" height="164pt"
 viewBox="0.00 0.00 266.60 164.00" xmlns="http://www.w3.org/2000/svg" xmlns:xlink="http://www.w3.org/1999/xlink">
<g id="graph0" class="graph" transform="scale(1 1) rotate(0) translate(4 160)">
<title>dependency&#45;cruiser output</title>
<polygon fill="white" stroke="transparent" points="-4,4 -4,-160 262.6,-160 262.6,4 -4,4"/>
<g id="clust1" class="cluster">
<title>cluster_src</title>
<path fill="#ffffff" stroke="black" stroke-width="2" d="M20,-26C20,-26 238.6,-26 238.6,-26 244.6,-26 250.6,-32 250.6,-38 250.6,-38 250.6,-136 250.6,-136 250.6,-142 244.6,-148 238.6,-148 238.6,-148 20,-148 20,-148 14,-148 8,-142 8,-136 8,-136 8,-38 8,-38 8,-32 14,-26 20,-26"/>
<text text-anchor="middle" x="129.3" y="-136.8" font-family="Helvetica,sans-Serif" font-weight="bold" font-size="9.00">src</text>
</g>
<g id="clust2" class="cluster">
<title>cluster_src/plugins</title>
<path fill="#ffffff" stroke="black" stroke-width="2" d="M90,-44C90,-44 136,-44 136,-44 142,-44 148,-50 148,-56 148,-56 148,-100 148,-100 148,-106 142,-112 136,-112 136,-112 90,-112 90,-112 84,-112 78,-106 78,-100 78,-100 78,-56 78,-56 78,-50 84,-44 90,-44"/>
<text text-anchor="middle" x="113" y="-100.8" font-family="Helvetica,sans-Serif" font-weight="bold" font-size="9.00">plugins</text>
</g>
<g id="clust3" class="cluster">
<title>cluster_src/use&#45;cases</title>
<path fill="#ffffff" stroke="black" stroke-width="2" d="M168,-46C168,-46 230.6,-46 230.6,-46 236.6,-46 242.6,-52 242.6,-58 242.6,-58 242.6,-86 242.6,-86 242.6,-92 236.6,-98 230.6,-98 230.6,-98 168,-98 168,-98 162,-98 156,-92 156,-86 156,-86 156,-58 156,-58 156,-52 162,-46 168,-46"/>
<text text-anchor="middle" x="199.3" y="-86.8" font-family="Helvetica,sans-Serif" font-weight="bold" font-size="9.00">use&#45;cases</text>
</g>
<!-- . -->
<g id="node1" class="node">
<title>.</title>
<polygon fill="#ffffcc" stroke="grey" points="140,-18 88,-18 86,-16 86,0 138,0 140,-2 140,-18"/>
<polyline fill="none" stroke="grey" points="138,-16 86,-16 "/>
<polyline fill="none" stroke="grey" points="138,-16 138,0 "/>
<polyline fill="none" stroke="grey" points="138,-16 140,-18 "/>
<text text-anchor="middle" x="113" y="-6.8" font-family="Helvetica,sans-Serif" font-size="9.00" fill="grey">.</text>
</g>
<!-- src -->
<!-- src&#45;&gt;. -->
<g id="edge1" class="edge">
<title>src&#45;&gt;.</title>
<path fill="none" stroke="#000000" stroke-dasharray="5,2" stroke-opacity="0.200000" d="M44.96,-35.62C49.25,-33.92 67.1,-26.83 83.31,-20.39"/>
<polygon fill="#000000" fill-opacity="0.200000" stroke="#000000" stroke-opacity="0.200000" points="84.38,-22.23 89.18,-18.06 82.83,-18.32 84.38,-22.23"/>
</g>
<!-- src/plugins -->
<!-- src/plugins/testing -->
<g id="node4" class="node">
<title>src/plugins/testing</title>
<g id="a_node4"><a xlink:href="src/plugins/testing" xlink:title="testing">
<polygon fill="#ffffcc" stroke="black" points="140,-70 88,-70 86,-68 86,-52 138,-52 140,-54 140,-70"/>
<polyline fill="none" stroke="black" points="138,-68 86,-68 "/>
<polyline fill="none" stroke="black" points="138,-68 138,-52 "/>
<polyline fill="none" stroke="black" points="138,-68 140,-70 "/>
<text text-anchor="middle" x="113" y="-58.8" font-family="Helvetica,sans-Serif" font-size="9.00">testing</text>
</a>
</g>
</g>
<!-- src/use&#45;cases/entities -->
<g id="node5" class="node">
<title>src/use&#45;cases/entities</title>
<g id="a_node5"><a xlink:href="src/use-cases/entities" xlink:title="entities">
<polygon fill="#ccffcc" stroke="black" points="234.6,-72 182.6,-72 180.6,-70 180.6,-54 232.6,-54 234.6,-56 234.6,-72"/>
<polyline fill="none" stroke="black" points="232.6,-70 180.6,-70 "/>
<polyline fill="none" stroke="black" points="232.6,-70 232.6,-54 "/>
<polyline fill="none" stroke="black" points="232.6,-70 234.6,-72 "/>
<text text-anchor="middle" x="207.6" y="-60.8" font-family="Helvetica,sans-Serif" font-size="9.00">entities</text>
</a>
</g>
</g>
<!-- src/plugins/testing&#45;&gt;src/use&#45;cases/entities -->
<g id="edge2" class="edge">
<title>src/plugins/testing&#45;&gt;src/use&#45;cases/entities</title>
<path fill="none" stroke="#000000" stroke-width="2" stroke-opacity="0.200000" d="M140.17,-61.45C148.9,-61.61 158.67,-61.8 167.6,-62 169.83,-62.05 172.13,-62.1 174.45,-62.16"/>
<polygon fill="#000000" fill-opacity="0.200000" stroke="#000000" stroke-width="2" stroke-opacity="0.200000" points="174.54,-64.26 180.59,-62.31 174.64,-60.06 174.54,-64.26"/>
</g>
<!-- src/use&#45;cases -->
<!-- src/plugins/testing&#45;&gt;src/use&#45;cases -->
<g id="edge3" class="edge">
<title>src/plugins/testing&#45;&gt;src/use&#45;cases</title>
<path fill="none" stroke="#000000" stroke-width="2" stroke-opacity="0.200000" d="M140.29,-65.66C146.83,-66.82 153.29,-67.96 157.93,-68.78"/>
<polygon fill="#000000" fill-opacity="0.200000" stroke="#000000" stroke-width="2" stroke-opacity="0.200000" points="157.68,-70.87 163.96,-69.85 158.42,-66.74 157.68,-70.87"/>
</g>
<!-- src/use&#45;cases&#45;&gt;src/use&#45;cases/entities -->
<g id="edge7" class="edge">
<title>src/use&#45;cases&#45;&gt;src/use&#45;cases/entities</title>
<path fill="none" stroke="#000000" stroke-width="2" stroke-opacity="0.200000" d="M167.78,-69.83C168.98,-69.62 171.18,-69.23 173.95,-68.74"/>
<polygon fill="#000000" fill-opacity="0.200000" stroke="#000000" stroke-width="2" stroke-opacity="0.200000" points="174.76,-70.73 180.3,-67.63 174.03,-66.6 174.76,-70.73"/>
</g>
<!-- src/specs -->
<g id="node7" class="node">
<title>src/specs</title>
<g id="a_node7"><a xlink:href="src/specs" xlink:title="specs">
<polygon fill="#ffffcc" stroke="black" points="70,-70 18,-70 16,-68 16,-52 68,-52 70,-54 70,-70"/>
<polyline fill="none" stroke="black" points="68,-68 16,-68 "/>
<polyline fill="none" stroke="black" points="68,-68 68,-52 "/>
<polyline fill="none" stroke="black" points="68,-68 70,-70 "/>
<text text-anchor="middle" x="43" y="-58.8" font-family="Helvetica,sans-Serif" font-size="9.00">specs</text>
</a>
</g>
</g>
<!-- src/specs&#45;&gt;src/plugins/testing -->
<g id="edge6" class="edge">
<title>src/specs&#45;&gt;src/plugins/testing</title>
<path fill="none" stroke="#000000" stroke-width="2" stroke-opacity="0.200000" d="M70.1,-61C73.12,-61 76.23,-61 79.33,-61"/>
<polygon fill="#000000" fill-opacity="0.200000" stroke="#000000" stroke-width="2" stroke-opacity="0.200000" points="79.64,-63.1 85.64,-61 79.64,-58.9 79.64,-63.1"/>
</g>
<!-- src/specs&#45;&gt;src/use&#45;cases/entities -->
<g id="edge5" class="edge">
<title>src/specs&#45;&gt;src/use&#45;cases/entities</title>
<path fill="none" stroke="#000000" stroke-width="2" stroke-opacity="0.200000" d="M57.83,-51.86C65.27,-47.15 73.77,-42.15 78,-41 108.02,-32.83 117.39,-35.44 148,-41 159.53,-43.09 171.74,-47.33 182.02,-51.53"/>
<polygon fill="#000000" fill-opacity="0.200000" stroke="#000000" stroke-width="2" stroke-opacity="0.200000" points="181.48,-53.58 187.83,-53.98 183.12,-49.71 181.48,-53.58"/>
</g>
<!-- src/specs&#45;&gt;src/use&#45;cases -->
<g id="edge4" class="edge">
<title>src/specs&#45;&gt;src/use&#45;cases</title>
<path fill="none" stroke="#000000" stroke-width="2" stroke-opacity="0.200000" d="M46.74,-70.33C51.04,-83.09 60.74,-105.47 78,-115 105.24,-130.04 122.44,-132.74 148,-115 160.13,-106.58 163.52,-88.29 164.45,-77.8"/>
<polygon fill="#000000" fill-opacity="0.200000" stroke="#000000" stroke-width="2" stroke-opacity="0.200000" points="166.55,-77.91 164.79,-71.8 162.36,-77.67 166.55,-77.91"/>
</g>
</g>
</svg>
