<?xml version="1.0" encoding="UTF-8" standalone="no"?>
<!DOCTYPE svg PUBLIC "-//W3C//DTD SVG 1.1//EN"
 "http://www.w3.org/Graphics/SVG/1.1/DTD/svg11.dtd">
<!-- Generated by graphviz version 2.43.0 (0)
 -->
<!-- Title: dependency&#45;cruiser output Pages: 1 -->
<svg width="524pt" height="410pt"
 viewBox="0.00 0.00 524.00 410.00" xmlns="http://www.w3.org/2000/svg" xmlns:xlink="http://www.w3.org/1999/xlink">
<g id="graph0" class="graph" transform="scale(1 1) rotate(0) translate(4 406)">
<title>dependency&#45;cruiser output</title>
<polygon fill="white" stroke="transparent" points="-4,4 -4,-406 520,-406 520,4 -4,4"/>
<g id="clust1" class="cluster">
<title>cluster_src</title>
<path fill="#ffffff" stroke="black" stroke-width="2" d="M20,-8C20,-8 496,-8 496,-8 502,-8 508,-14 508,-20 508,-20 508,-382 508,-382 508,-388 502,-394 496,-394 496,-394 20,-394 20,-394 14,-394 8,-388 8,-382 8,-382 8,-20 8,-20 8,-14 14,-8 20,-8"/>
<text text-anchor="middle" x="258" y="-382.8" font-family="Helvetica,sans-Serif" font-weight="bold" font-size="9.00">src</text>
</g>
<g id="clust2" class="cluster">
<title>cluster_src/use&#45;cases</title>
<path fill="#ffffff" stroke="black" stroke-width="2" d="M28,-42C28,-42 488,-42 488,-42 494,-42 500,-48 500,-54 500,-54 500,-356 500,-356 500,-362 494,-368 488,-368 488,-368 28,-368 28,-368 22,-368 16,-362 16,-356 16,-356 16,-54 16,-54 16,-48 22,-42 28,-42"/>
<text text-anchor="middle" x="258" y="-356.8" font-family="Helvetica,sans-Serif" font-weight="bold" font-size="9.00">use&#45;cases</text>
</g>
<g id="clust3" class="cluster">
<title>cluster_src/use&#45;cases/entities</title>
<path fill="#ffffff" stroke="black" stroke-width="2" d="M314,-50C314,-50 480,-50 480,-50 486,-50 492,-56 492,-62 492,-62 492,-330 492,-330 492,-336 486,-342 480,-342 480,-342 314,-342 314,-342 308,-342 302,-336 302,-330 302,-330 302,-62 302,-62 302,-56 308,-50 314,-50"/>
<text text-anchor="middle" x="397" y="-330.8" font-family="Helvetica,sans-Serif" font-weight="bold" font-size="9.00">entities</text>
</g>
<g id="clust4" class="cluster">
<title>cluster_src/use&#45;cases/specs</title>
<path fill="#ffffff" stroke="black" stroke-width="2" d="M36,-147C36,-147 177,-147 177,-147 183,-147 189,-153 189,-159 189,-159 189,-277 189,-277 189,-283 183,-289 177,-289 177,-289 36,-289 36,-289 30,-289 24,-283 24,-277 24,-277 24,-159 24,-159 24,-153 30,-147 36,-147"/>
<text text-anchor="middle" x="106.5" y="-277.8" font-family="Helvetica,sans-Serif" font-weight="bold" font-size="9.00">specs</text>
</g>
<!-- src/main.ts -->
<g id="node1" class="node">
<title>src/main.ts</title>
<g id="a_node1"><a xlink:href="src/main.ts" xlink:title="main.ts">
<path fill="#ccffcc" stroke="black" d="M127.5,-34C127.5,-34 85.5,-34 85.5,-34 82.5,-34 79.5,-31 79.5,-28 79.5,-28 79.5,-22 79.5,-22 79.5,-19 82.5,-16 85.5,-16 85.5,-16 127.5,-16 127.5,-16 130.5,-16 133.5,-19 133.5,-22 133.5,-22 133.5,-28 133.5,-28 133.5,-31 130.5,-34 127.5,-34"/>
<text text-anchor="middle" x="106.5" y="-22.8" font-family="Helvetica,sans-Serif" font-size="9.00">main.ts</text>
</a>
</g>
</g>
<!-- src/use&#45;cases/apply&#45;tribe.ts -->
<g id="node2" class="node">
<title>src/use&#45;cases/apply&#45;tribe.ts</title>
<g id="a_node2"><a xlink:href="src/use-cases/apply-tribe.ts" xlink:title="apply&#45;tribe.ts">
<path fill="#ddfeff" stroke="black" d="M278,-125C278,-125 213,-125 213,-125 210,-125 207,-122 207,-119 207,-119 207,-113 207,-113 207,-110 210,-107 213,-107 213,-107 278,-107 278,-107 281,-107 284,-110 284,-113 284,-113 284,-119 284,-119 284,-122 281,-125 278,-125"/>
<text text-anchor="middle" x="245.5" y="-113.8" font-family="Helvetica,sans-Serif" font-size="9.00">apply&#45;tribe.ts</text>
</a>
</g>
</g>
<!-- src/use&#45;cases/entities/application.ts -->
<g id="node3" class="node">
<title>src/use&#45;cases/entities/application.ts</title>
<g id="a_node3"><a xlink:href="src/use-cases/entities/application.ts" xlink:title="application.ts">
<path fill="#ddfeff" stroke="black" d="M391.5,-136C391.5,-136 326.5,-136 326.5,-136 323.5,-136 320.5,-133 320.5,-130 320.5,-130 320.5,-124 320.5,-124 320.5,-121 323.5,-118 326.5,-118 326.5,-118 391.5,-118 391.5,-118 394.5,-118 397.5,-121 397.5,-124 397.5,-124 397.5,-130 397.5,-130 397.5,-133 394.5,-136 391.5,-136"/>
<text text-anchor="middle" x="359" y="-124.8" font-family="Helvetica,sans-Serif" font-size="9.00">application.ts</text>
</a>
</g>
</g>
<!-- src/use&#45;cases/apply&#45;tribe.ts&#45;&gt;src/use&#45;cases/entities/application.ts -->
<g id="edge1" class="edge">
<title>src/use&#45;cases/apply&#45;tribe.ts&#45;&gt;src/use&#45;cases/entities/application.ts</title>
<path fill="none" stroke="#000000" stroke-width="2" stroke-opacity="0.200000" d="M284.25,-119.72C293.88,-120.67 304.3,-121.7 314.21,-122.68"/>
<polygon fill="#000000" fill-opacity="0.200000" stroke="#000000" stroke-width="2" stroke-opacity="0.200000" points="314.11,-124.78 320.29,-123.28 314.53,-120.6 314.11,-124.78"/>
</g>
<!-- src/use&#45;cases/entities/notification&#45;bus.ts -->
<g id="node4" class="node">
<title>src/use&#45;cases/entities/notification&#45;bus.ts</title>
<g id="a_node4"><a xlink:href="src/use-cases/entities/notification-bus.ts" xlink:title="notification&#45;bus.ts">
<path fill="#ddfeff" stroke="black" d="M402,-166C402,-166 316,-166 316,-166 313,-166 310,-163 310,-160 310,-160 310,-154 310,-154 310,-151 313,-148 316,-148 316,-148 402,-148 402,-148 405,-148 408,-151 408,-154 408,-154 408,-160 408,-160 408,-163 405,-166 402,-166"/>
<text text-anchor="middle" x="359" y="-154.8" font-family="Helvetica,sans-Serif" font-size="9.00">notification&#45;bus.ts</text>
</a>
</g>
</g>
<!-- src/use&#45;cases/apply&#45;tribe.ts&#45;&gt;src/use&#45;cases/entities/notification&#45;bus.ts -->
<g id="edge2" class="edge">
<title>src/use&#45;cases/apply&#45;tribe.ts&#45;&gt;src/use&#45;cases/entities/notification&#45;bus.ts</title>
<path fill="none" stroke="#000000" stroke-width="2" stroke-opacity="0.200000" d="M276.58,-125.19C282.58,-127.62 288.67,-130.55 294,-134 298.22,-136.73 297.65,-139.49 302,-142 304.26,-143.3 306.63,-144.49 309.07,-145.59"/>
<polygon fill="#000000" fill-opacity="0.200000" stroke="#000000" stroke-width="2" stroke-opacity="0.200000" points="308.52,-147.63 314.87,-147.95 310.11,-143.74 308.52,-147.63"/>
</g>
<!-- src/use&#45;cases/entities/brainstorm.ts -->
<g id="node5" class="node">
<title>src/use&#45;cases/entities/brainstorm.ts</title>
<g id="a_node5"><a xlink:href="src/use-cases/entities/brainstorm.ts" xlink:title="brainstorm.ts">
<path fill="#ddfeff" stroke="black" d="M391.5,-196C391.5,-196 326.5,-196 326.5,-196 323.5,-196 320.5,-193 320.5,-190 320.5,-190 320.5,-184 320.5,-184 320.5,-181 323.5,-178 326.5,-178 326.5,-178 391.5,-178 391.5,-178 394.5,-178 397.5,-181 397.5,-184 397.5,-184 397.5,-190 397.5,-190 397.5,-193 394.5,-196 391.5,-196"/>
<text text-anchor="middle" x="359" y="-184.8" font-family="Helvetica,sans-Serif" font-size="9.00">brainstorm.ts</text>
</a>
</g>
</g>
<!-- src/use&#45;cases/entities/location.ts -->
<g id="node6" class="node">
<title>src/use&#45;cases/entities/location.ts</title>
<g id="a_node6"><a xlink:href="src/use-cases/entities/location.ts" xlink:title="location.ts">
<path fill="#ddfeff" stroke="black" d="M478,-316C478,-316 427,-316 427,-316 424,-316 421,-313 421,-310 421,-310 421,-304 421,-304 421,-301 424,-298 427,-298 427,-298 478,-298 478,-298 481,-298 484,-301 484,-304 484,-304 484,-310 484,-310 484,-313 481,-316 478,-316"/>
<text text-anchor="middle" x="452.5" y="-304.8" font-family="Helvetica,sans-Serif" font-size="9.00">location.ts</text>
</a>
</g>
</g>
<!-- src/use&#45;cases/entities/member.ts -->
<g id="node7" class="node">
<title>src/use&#45;cases/entities/member.ts</title>
<g id="a_node7"><a xlink:href="src/use-cases/entities/member.ts" xlink:title="member.ts">
<path fill="#ddfeff" stroke="black" d="M385.5,-226C385.5,-226 332.5,-226 332.5,-226 329.5,-226 326.5,-223 326.5,-220 326.5,-220 326.5,-214 326.5,-214 326.5,-211 329.5,-208 332.5,-208 332.5,-208 385.5,-208 385.5,-208 388.5,-208 391.5,-211 391.5,-214 391.5,-214 391.5,-220 391.5,-220 391.5,-223 388.5,-226 385.5,-226"/>
<text text-anchor="middle" x="359" y="-214.8" font-family="Helvetica,sans-Serif" font-size="9.00">member.ts</text>
</a>
</g>
</g>
<!-- src/use&#45;cases/entities/not&#45;found&#45;error.ts -->
<g id="node8" class="node">
<title>src/use&#45;cases/entities/not&#45;found&#45;error.ts</title>
<g id="a_node8"><a xlink:href="src/use-cases/entities/not-found-error.ts" xlink:title="not&#45;found&#45;error.ts">
<path fill="#ddfeff" stroke="black" d="M400.5,-256C400.5,-256 317.5,-256 317.5,-256 314.5,-256 311.5,-253 311.5,-250 311.5,-250 311.5,-244 311.5,-244 311.5,-241 314.5,-238 317.5,-238 317.5,-238 400.5,-238 400.5,-238 403.5,-238 406.5,-241 406.5,-244 406.5,-244 406.5,-250 406.5,-250 406.5,-253 403.5,-256 400.5,-256"/>
<text text-anchor="middle" x="359" y="-244.8" font-family="Helvetica,sans-Serif" font-size="9.00">not&#45;found&#45;error.ts</text>
</a>
</g>
</g>
<!-- src/use&#45;cases/entities/quest.ts -->
<g id="node9" class="node">
<title>src/use&#45;cases/entities/quest.ts</title>
<g id="a_node9"><a xlink:href="src/use-cases/entities/quest.ts" xlink:title="quest.ts">
<path fill="#ddfeff" stroke="black" d="M380,-76C380,-76 338,-76 338,-76 335,-76 332,-73 332,-70 332,-70 332,-64 332,-64 332,-61 335,-58 338,-58 338,-58 380,-58 380,-58 383,-58 386,-61 386,-64 386,-64 386,-70 386,-70 386,-73 383,-76 380,-76"/>
<text text-anchor="middle" x="359" y="-64.8" font-family="Helvetica,sans-Serif" font-size="9.00">quest.ts</text>
</a>
</g>
</g>
<!-- src/use&#45;cases/entities/tribe.ts -->
<g id="node10" class="node">
<title>src/use&#45;cases/entities/tribe.ts</title>
<g id="a_node10"><a xlink:href="src/use-cases/entities/tribe.ts" xlink:title="tribe.ts">
<path fill="#ddfeff" stroke="black" d="M380,-316C380,-316 338,-316 338,-316 335,-316 332,-313 332,-310 332,-310 332,-304 332,-304 332,-301 335,-298 338,-298 338,-298 380,-298 380,-298 383,-298 386,-301 386,-304 386,-304 386,-310 386,-310 386,-313 383,-316 380,-316"/>
<text text-anchor="middle" x="359" y="-304.8" font-family="Helvetica,sans-Serif" font-size="9.00">tribe.ts</text>
</a>
</g>
</g>
<!-- src/use&#45;cases/entities/tribe.ts&#45;&gt;src/use&#45;cases/entities/location.ts -->
<g id="edge3" class="edge">
<title>src/use&#45;cases/entities/tribe.ts&#45;&gt;src/use&#45;cases/entities/location.ts</title>
<path fill="none" stroke="#000000" stroke-width="2" stroke-opacity="0.200000" d="M386.47,-307C395.3,-307 405.3,-307 414.77,-307"/>
<polygon fill="#000000" fill-opacity="0.200000" stroke="#000000" stroke-width="2" stroke-opacity="0.200000" points="414.9,-309.1 420.9,-307 414.9,-304.9 414.9,-309.1"/>
</g>
<!-- src/use&#45;cases/entities/ts&#45;utils.ts -->
<g id="node11" class="node">
<title>src/use&#45;cases/entities/ts&#45;utils.ts</title>
<g id="a_node11"><a xlink:href="src/use-cases/entities/ts-utils.ts" xlink:title="ts&#45;utils.ts">
<path fill="#ccffcc" stroke="black" d="M382,-106C382,-106 336,-106 336,-106 333,-106 330,-103 330,-100 330,-100 330,-94 330,-94 330,-91 333,-88 336,-88 336,-88 382,-88 382,-88 385,-88 388,-91 388,-94 388,-94 388,-100 388,-100 388,-103 385,-106 382,-106"/>
<text text-anchor="middle" x="359" y="-94.8" font-family="Helvetica,sans-Serif" font-size="9.00">ts&#45;utils.ts</text>
</a>
</g>
</g>
<!-- src/use&#45;cases/entities/user.ts -->
<g id="node12" class="node">
<title>src/use&#45;cases/entities/user.ts</title>
<g id="a_node12"><a xlink:href="src/use-cases/entities/user.ts" xlink:title="user.ts">
<path fill="#ddfeff" stroke="black" d="M380,-286C380,-286 338,-286 338,-286 335,-286 332,-283 332,-280 332,-280 332,-274 332,-274 332,-271 335,-268 338,-268 338,-268 380,-268 380,-268 383,-268 386,-271 386,-274 386,-274 386,-280 386,-280 386,-283 383,-286 380,-286"/>
<text text-anchor="middle" x="359" y="-274.8" font-family="Helvetica,sans-Serif" font-size="9.00">user.ts</text>
</a>
</g>
</g>
<!-- src/use&#45;cases/entities/user.ts&#45;&gt;src/use&#45;cases/entities/location.ts -->
<g id="edge4" class="edge">
<title>src/use&#45;cases/entities/user.ts&#45;&gt;src/use&#45;cases/entities/location.ts</title>
<path fill="none" stroke="#000000" stroke-width="2" stroke-opacity="0.200000" d="M386.2,-285.04C393.29,-287.25 400.95,-289.68 408,-292 411.88,-293.27 415.94,-294.64 419.95,-296"/>
<polygon fill="#000000" fill-opacity="0.200000" stroke="#000000" stroke-width="2" stroke-opacity="0.200000" points="419.42,-298.04 425.78,-297.99 420.78,-294.06 419.42,-298.04"/>
</g>
<!-- src/use&#45;cases/incarnate&#45;ideas.ts -->
<g id="node13" class="node">
<title>src/use&#45;cases/incarnate&#45;ideas.ts</title>
<g id="a_node13"><a xlink:href="src/use-cases/incarnate-ideas.ts" xlink:title="incarnate&#45;ideas.ts">
<path fill="#ddfeff" stroke="black" d="M288,-197C288,-197 203,-197 203,-197 200,-197 197,-194 197,-191 197,-191 197,-185 197,-185 197,-182 200,-179 203,-179 203,-179 288,-179 288,-179 291,-179 294,-182 294,-185 294,-185 294,-191 294,-191 294,-194 291,-197 288,-197"/>
<text text-anchor="middle" x="245.5" y="-185.8" font-family="Helvetica,sans-Serif" font-size="9.00">incarnate&#45;ideas.ts</text>
</a>
</g>
</g>
<!-- src/use&#45;cases/incarnate&#45;ideas.ts&#45;&gt;src/use&#45;cases/entities/brainstorm.ts -->
<g id="edge5" class="edge">
<title>src/use&#45;cases/incarnate&#45;ideas.ts&#45;&gt;src/use&#45;cases/entities/brainstorm.ts</title>
<path fill="none" stroke="#000000" stroke-width="2" stroke-opacity="0.200000" d="M294.11,-187.57C300.82,-187.51 307.68,-187.45 314.31,-187.39"/>
<polygon fill="#000000" fill-opacity="0.200000" stroke="#000000" stroke-width="2" stroke-opacity="0.200000" points="314.34,-189.49 320.32,-187.34 314.3,-185.29 314.34,-189.49"/>
</g>
<!-- src/use&#45;cases/incarnate&#45;ideas.ts&#45;&gt;src/use&#45;cases/entities/member.ts -->
<g id="edge6" class="edge">
<title>src/use&#45;cases/incarnate&#45;ideas.ts&#45;&gt;src/use&#45;cases/entities/member.ts</title>
<path fill="none" stroke="#000000" stroke-width="2" stroke-opacity="0.200000" d="M281.17,-197.02C293.58,-200.25 307.64,-203.9 320.3,-207.19"/>
<polygon fill="#000000" fill-opacity="0.200000" stroke="#000000" stroke-width="2" stroke-opacity="0.200000" points="320.05,-209.3 326.39,-208.78 321.11,-205.23 320.05,-209.3"/>
</g>
<!-- src/use&#45;cases/incarnate&#45;ideas.ts&#45;&gt;src/use&#45;cases/entities/not&#45;found&#45;error.ts -->
<g id="edge7" class="edge">
<title>src/use&#45;cases/incarnate&#45;ideas.ts&#45;&gt;src/use&#45;cases/entities/not&#45;found&#45;error.ts</title>
<path fill="none" stroke="#000000" stroke-width="2" stroke-opacity="0.200000" d="M255.49,-197.09C265.84,-207.05 283.77,-222.83 302,-232 304.72,-233.37 307.58,-234.62 310.52,-235.77"/>
<polygon fill="#000000" fill-opacity="0.200000" stroke="#000000" stroke-width="2" stroke-opacity="0.200000" points="310.25,-237.91 316.6,-237.99 311.68,-233.96 310.25,-237.91"/>
</g>
<!-- src/use&#45;cases/incarnate&#45;ideas.ts&#45;&gt;src/use&#45;cases/entities/quest.ts -->
<g id="edge8" class="edge">
<title>src/use&#45;cases/incarnate&#45;ideas.ts&#45;&gt;src/use&#45;cases/entities/quest.ts</title>
<path fill="none" stroke="#000000" stroke-width="2" stroke-opacity="0.200000" d="M257.1,-178.65C268.2,-168.21 285.23,-150.22 294,-131 303.16,-110.93 287.2,-98.36 302,-82 308.15,-75.21 317,-71.35 325.86,-69.2"/>
<polygon fill="#000000" fill-opacity="0.200000" stroke="#000000" stroke-width="2" stroke-opacity="0.200000" points="326.49,-71.21 331.96,-67.96 325.66,-67.09 326.49,-71.21"/>
</g>
<!-- src/use&#45;cases/list&#45;tribes.ts -->
<g id="node14" class="node">
<title>src/use&#45;cases/list&#45;tribes.ts</title>
<g id="a_node14"><a xlink:href="src/use-cases/list-tribes.ts" xlink:title="list&#45;tribes.ts">
<path fill="#ddfeff" stroke="black" d="M274,-313C274,-313 217,-313 217,-313 214,-313 211,-310 211,-307 211,-307 211,-301 211,-301 211,-298 214,-295 217,-295 217,-295 274,-295 274,-295 277,-295 280,-298 280,-301 280,-301 280,-307 280,-307 280,-310 277,-313 274,-313"/>
<text text-anchor="middle" x="245.5" y="-301.8" font-family="Helvetica,sans-Serif" font-size="9.00">list&#45;tribes.ts</text>
</a>
</g>
</g>
<!-- src/use&#45;cases/list&#45;tribes.ts&#45;&gt;src/use&#45;cases/entities/tribe.ts -->
<g id="edge9" class="edge">
<title>src/use&#45;cases/list&#45;tribes.ts&#45;&gt;src/use&#45;cases/entities/tribe.ts</title>
<path fill="none" stroke="#000000" stroke-width="2" stroke-opacity="0.200000" d="M280.26,-304.91C294.6,-305.29 311.25,-305.74 325.46,-306.12"/>
<polygon fill="#000000" fill-opacity="0.200000" stroke="#000000" stroke-width="2" stroke-opacity="0.200000" points="325.74,-308.23 331.79,-306.29 325.85,-304.03 325.74,-308.23"/>
</g>
<!-- src/use&#45;cases/list&#45;tribes.ts&#45;&gt;src/use&#45;cases/entities/user.ts -->
<g id="edge10" class="edge">
<title>src/use&#45;cases/list&#45;tribes.ts&#45;&gt;src/use&#45;cases/entities/user.ts</title>
<path fill="none" stroke="#000000" stroke-width="2" stroke-opacity="0.200000" d="M280.26,-295.83C294.73,-292.32 311.55,-288.25 325.84,-284.79"/>
<polygon fill="#000000" fill-opacity="0.200000" stroke="#000000" stroke-width="2" stroke-opacity="0.200000" points="326.46,-286.8 331.79,-283.35 325.47,-282.72 326.46,-286.8"/>
</g>
<!-- src/use&#45;cases/specs/incarnate&#45;quest&#45;ideas.spec.ts -->
<g id="node15" class="node">
<title>src/use&#45;cases/specs/incarnate&#45;quest&#45;ideas.spec.ts</title>
<g id="a_node15"><a xlink:href="src/use-cases/specs/incarnate-quest-ideas.spec.ts" xlink:title="incarnate&#45;quest&#45;ideas.spec.ts">
<path fill="#ddfeff" stroke="black" d="M175,-203C175,-203 38,-203 38,-203 35,-203 32,-200 32,-197 32,-197 32,-191 32,-191 32,-188 35,-185 38,-185 38,-185 175,-185 175,-185 178,-185 181,-188 181,-191 181,-191 181,-197 181,-197 181,-200 178,-203 175,-203"/>
<text text-anchor="middle" x="106.5" y="-191.8" font-family="Helvetica,sans-Serif" font-size="9.00">incarnate&#45;quest&#45;ideas.spec.ts</text>
</a>
</g>
</g>
<!-- src/use&#45;cases/specs/incarnate&#45;quest&#45;ideas.spec.ts&#45;&gt;src/use&#45;cases/entities/brainstorm.ts -->
<g id="edge11" class="edge">
<title>src/use&#45;cases/specs/incarnate&#45;quest&#45;ideas.spec.ts&#45;&gt;src/use&#45;cases/entities/brainstorm.ts</title>
<path fill="none" stroke="#000000" stroke-width="2" stroke-opacity="0.200000" d="M179.47,-184.96C182.84,-183.26 186.04,-181.28 189,-179 195.61,-173.9 189.95,-166.47 197,-162 233.4,-138.9 255.14,-143.32 294,-162 299.13,-164.47 297.24,-168.89 302,-172 305.91,-174.56 310.24,-176.68 314.72,-178.44"/>
<polygon fill="#000000" fill-opacity="0.200000" stroke="#000000" stroke-width="2" stroke-opacity="0.200000" points="314.08,-180.44 320.44,-180.48 315.49,-176.49 314.08,-180.44"/>
</g>
<!-- src/use&#45;cases/specs/incarnate&#45;quest&#45;ideas.spec.ts&#45;&gt;src/use&#45;cases/entities/member.ts -->
<g id="edge12" class="edge">
<title>src/use&#45;cases/specs/incarnate&#45;quest&#45;ideas.spec.ts&#45;&gt;src/use&#45;cases/entities/member.ts</title>
<path fill="none" stroke="#000000" stroke-width="2" stroke-opacity="0.200000" d="M178.3,-203.02C184.62,-203.73 190.92,-204.4 197,-205 239.1,-209.15 287.53,-212.58 320.18,-214.69"/>
<polygon fill="#000000" fill-opacity="0.200000" stroke="#000000" stroke-width="2" stroke-opacity="0.200000" points="320.37,-216.81 326.49,-215.1 320.64,-212.62 320.37,-216.81"/>
</g>
<!-- src/use&#45;cases/specs/incarnate&#45;quest&#45;ideas.spec.ts&#45;&gt;src/use&#45;cases/entities/quest.ts -->
<g id="edge13" class="edge">
<title>src/use&#45;cases/specs/incarnate&#45;quest&#45;ideas.spec.ts&#45;&gt;src/use&#45;cases/entities/quest.ts</title>
<path fill="none" stroke="#000000" stroke-width="2" stroke-opacity="0.200000" d="M181.29,-185.69C184.09,-183.78 186.69,-181.56 189,-179 204.08,-162.28 180.99,-93.83 197,-78 230.42,-44.94 289.2,-50.49 325.73,-58.24"/>
<polygon fill="#000000" fill-opacity="0.200000" stroke="#000000" stroke-width="2" stroke-opacity="0.200000" points="325.53,-60.35 331.84,-59.6 326.44,-56.25 325.53,-60.35"/>
</g>
<!-- src/use&#45;cases/specs/incarnate&#45;quest&#45;ideas.spec.ts&#45;&gt;src/use&#45;cases/incarnate&#45;ideas.ts -->
<g id="edge14" class="edge">
<title>src/use&#45;cases/specs/incarnate&#45;quest&#45;ideas.spec.ts&#45;&gt;src/use&#45;cases/incarnate&#45;ideas.ts</title>
<path fill="none" stroke="#000000" stroke-width="2" stroke-opacity="0.200000" d="M181.21,-190.77C184.37,-190.63 187.52,-190.5 190.62,-190.36"/>
<polygon fill="#000000" fill-opacity="0.200000" stroke="#000000" stroke-width="2" stroke-opacity="0.200000" points="191.02,-192.44 196.92,-190.08 190.83,-188.25 191.02,-192.44"/>
</g>
<!-- src/use&#45;cases/specs/stanger&#45;application.spec.ts -->
<g id="node16" class="node">
<title>src/use&#45;cases/specs/stanger&#45;application.spec.ts</title>
<g id="a_node16"><a xlink:href="src/use-cases/specs/stanger-application.spec.ts" xlink:title="stanger&#45;application.spec.ts">
<path fill="#ddfeff" stroke="black" d="M170,-173C170,-173 43,-173 43,-173 40,-173 37,-170 37,-167 37,-167 37,-161 37,-161 37,-158 40,-155 43,-155 43,-155 170,-155 170,-155 173,-155 176,-158 176,-161 176,-161 176,-167 176,-167 176,-170 173,-173 170,-173"/>
<text text-anchor="middle" x="106.5" y="-161.8" font-family="Helvetica,sans-Serif" font-size="9.00">stanger&#45;application.spec.ts</text>
</a>
</g>
</g>
<!-- src/use&#45;cases/specs/stanger&#45;application.spec.ts&#45;&gt;src/use&#45;cases/apply&#45;tribe.ts -->
<g id="edge15" class="edge">
<title>src/use&#45;cases/specs/stanger&#45;application.spec.ts&#45;&gt;src/use&#45;cases/apply&#45;tribe.ts</title>
<path fill="none" stroke="#000000" stroke-width="2" stroke-opacity="0.200000" d="M176.28,-158.23C180.81,-156.31 185.11,-153.93 189,-151 195.67,-145.98 190.87,-139.67 197,-134 199.43,-131.75 202.16,-129.78 205.06,-128.05"/>
<polygon fill="#000000" fill-opacity="0.200000" stroke="#000000" stroke-width="2" stroke-opacity="0.200000" points="206.13,-129.86 210.43,-125.18 204.15,-126.15 206.13,-129.86"/>
</g>
<!-- src/use&#45;cases/specs/stanger&#45;application.spec.ts&#45;&gt;src/use&#45;cases/entities/application.ts -->
<g id="edge16" class="edge">
<title>src/use&#45;cases/specs/stanger&#45;application.spec.ts&#45;&gt;src/use&#45;cases/entities/application.ts</title>
<path fill="none" stroke="#000000" stroke-width="2" stroke-opacity="0.200000" d="M176.18,-159.99C180.9,-157.7 185.26,-154.76 189,-151 205.49,-134.42 179.25,-114.23 197,-99 229.72,-70.93 256.37,-77.97 294,-99 299.92,-102.31 296.56,-107.95 302,-112 305.8,-114.83 310.1,-117.13 314.59,-119"/>
<polygon fill="#000000" fill-opacity="0.200000" stroke="#000000" stroke-width="2" stroke-opacity="0.200000" points="313.99,-121.01 320.34,-121.13 315.45,-117.08 313.99,-121.01"/>
</g>
<!-- src/use&#45;cases/specs/stanger&#45;application.spec.ts&#45;&gt;src/use&#45;cases/entities/notification&#45;bus.ts -->
<g id="edge17" class="edge">
<title>src/use&#45;cases/specs/stanger&#45;application.spec.ts&#45;&gt;src/use&#45;cases/entities/notification&#45;bus.ts</title>
<path fill="none" stroke="#000000" stroke-width="2" stroke-opacity="0.200000" d="M176.12,-156.34C180.58,-154.85 184.92,-153.08 189,-151 193.48,-148.71 192.35,-144.92 197,-143 236.83,-126.5 251.14,-138.37 294,-143 301.51,-143.81 309.43,-145.14 317.04,-146.67"/>
<polygon fill="#000000" fill-opacity="0.200000" stroke="#000000" stroke-width="2" stroke-opacity="0.200000" points="317.04,-148.82 323.35,-148 317.91,-144.71 317.04,-148.82"/>
</g>
<!-- src/use&#45;cases/specs/stranger&#45;list&#45;tribes.spec.ts -->
<g id="node17" class="node">
<title>src/use&#45;cases/specs/stranger&#45;list&#45;tribes.spec.ts</title>
<g id="a_node17"><a xlink:href="src/use-cases/specs/stranger-list-tribes.spec.ts" xlink:title="stranger&#45;list&#45;tribes.spec.ts">
<path fill="#ddfeff" stroke="black" d="M167.5,-263C167.5,-263 45.5,-263 45.5,-263 42.5,-263 39.5,-260 39.5,-257 39.5,-257 39.5,-251 39.5,-251 39.5,-248 42.5,-245 45.5,-245 45.5,-245 167.5,-245 167.5,-245 170.5,-245 173.5,-248 173.5,-251 173.5,-251 173.5,-257 173.5,-257 173.5,-260 170.5,-263 167.5,-263"/>
<text text-anchor="middle" x="106.5" y="-251.8" font-family="Helvetica,sans-Serif" font-size="9.00">stranger&#45;list&#45;tribes.spec.ts</text>
</a>
</g>
</g>
<!-- src/use&#45;cases/specs/stranger&#45;list&#45;tribes.spec.ts&#45;&gt;src/use&#45;cases/entities/location.ts -->
<g id="edge18" class="edge">
<title>src/use&#45;cases/specs/stranger&#45;list&#45;tribes.spec.ts&#45;&gt;src/use&#45;cases/entities/location.ts</title>
<path fill="none" stroke="#000000" stroke-width="2" stroke-opacity="0.200000" d="M114.65,-263.1C128.44,-279.82 160.58,-314.89 197,-328 285.27,-359.77 315.91,-339.93 408,-322 413.07,-321.01 418.36,-319.57 423.43,-317.96"/>
<polygon fill="#000000" fill-opacity="0.200000" stroke="#000000" stroke-width="2" stroke-opacity="0.200000" points="424.23,-319.9 429.25,-316.01 422.89,-315.92 424.23,-319.9"/>
</g>
<!-- src/use&#45;cases/specs/stranger&#45;list&#45;tribes.spec.ts&#45;&gt;src/use&#45;cases/entities/tribe.ts -->
<g id="edge19" class="edge">
<title>src/use&#45;cases/specs/stranger&#45;list&#45;tribes.spec.ts&#45;&gt;src/use&#45;cases/entities/tribe.ts</title>
<path fill="none" stroke="#000000" stroke-width="2" stroke-opacity="0.200000" d="M115.76,-263.23C130.34,-278.74 162.38,-309.48 197,-321 239.98,-335.31 292.78,-326 325.93,-317.17"/>
<polygon fill="#000000" fill-opacity="0.200000" stroke="#000000" stroke-width="2" stroke-opacity="0.200000" points="326.65,-319.15 331.88,-315.54 325.54,-315.1 326.65,-319.15"/>
</g>
<!-- src/use&#45;cases/specs/stranger&#45;list&#45;tribes.spec.ts&#45;&gt;src/use&#45;cases/entities/user.ts -->
<g id="edge20" class="edge">
<title>src/use&#45;cases/specs/stranger&#45;list&#45;tribes.spec.ts&#45;&gt;src/use&#45;cases/entities/user.ts</title>
<path fill="none" stroke="#000000" stroke-width="2" stroke-opacity="0.200000" d="M145.16,-263.03C161.06,-266.46 179.84,-270.02 197,-272 241.41,-277.12 293.13,-277.79 325.72,-277.58"/>
<polygon fill="#000000" fill-opacity="0.200000" stroke="#000000" stroke-width="2" stroke-opacity="0.200000" points="325.99,-279.68 331.97,-277.53 325.95,-275.48 325.99,-279.68"/>
</g>
<!-- src/use&#45;cases/specs/stranger&#45;list&#45;tribes.spec.ts&#45;&gt;src/use&#45;cases/list&#45;tribes.ts -->
<g id="edge21" class="edge">
<title>src/use&#45;cases/specs/stranger&#45;list&#45;tribes.spec.ts&#45;&gt;src/use&#45;cases/list&#45;tribes.ts</title>
<path fill="none" stroke="#000000" stroke-width="2" stroke-opacity="0.200000" d="M132.31,-263.05C155.15,-271.39 189.12,-283.79 213.69,-292.76"/>
<polygon fill="#000000" fill-opacity="0.200000" stroke="#000000" stroke-width="2" stroke-opacity="0.200000" points="213.06,-294.76 219.41,-294.84 214.5,-290.81 213.06,-294.76"/>
</g>
<!-- src/use&#45;cases/specs/voting.spec.ts -->
<g id="node18" class="node">
<title>src/use&#45;cases/specs/voting.spec.ts</title>
<g id="a_node18"><a xlink:href="src/use-cases/specs/voting.spec.ts" xlink:title="voting.spec.ts">
<path fill="#ddfeff" stroke="black" d="M140.5,-233C140.5,-233 72.5,-233 72.5,-233 69.5,-233 66.5,-230 66.5,-227 66.5,-227 66.5,-221 66.5,-221 66.5,-218 69.5,-215 72.5,-215 72.5,-215 140.5,-215 140.5,-215 143.5,-215 146.5,-218 146.5,-221 146.5,-221 146.5,-227 146.5,-227 146.5,-230 143.5,-233 140.5,-233"/>
<text text-anchor="middle" x="106.5" y="-221.8" font-family="Helvetica,sans-Serif" font-size="9.00">voting.spec.ts</text>
</a>
</g>
</g>
<!-- src/use&#45;cases/specs/voting.spec.ts&#45;&gt;src/use&#45;cases/entities/brainstorm.ts -->
<g id="edge22" class="edge">
<title>src/use&#45;cases/specs/voting.spec.ts&#45;&gt;src/use&#45;cases/entities/brainstorm.ts</title>
<path fill="none" stroke="#000000" stroke-width="2" stroke-opacity="0.200000" d="M146.57,-225.63C161.63,-224.21 177.87,-219.85 189,-209 201.36,-196.95 183.6,-181.87 197,-171 213.74,-157.42 272.61,-168.37 294,-171 303.32,-172.15 313.24,-174.2 322.42,-176.47"/>
<polygon fill="#000000" fill-opacity="0.200000" stroke="#000000" stroke-width="2" stroke-opacity="0.200000" points="322,-178.53 328.33,-177.98 323.04,-174.46 322,-178.53"/>
</g>
<!-- src/use&#45;cases/specs/voting.spec.ts&#45;&gt;src/use&#45;cases/entities/member.ts -->
<g id="edge23" class="edge">
<title>src/use&#45;cases/specs/voting.spec.ts&#45;&gt;src/use&#45;cases/entities/member.ts</title>
<path fill="none" stroke="#000000" stroke-width="2" stroke-opacity="0.200000" d="M146.64,-222.91C194.05,-221.58 273.36,-219.37 320.17,-218.06"/>
<polygon fill="#000000" fill-opacity="0.200000" stroke="#000000" stroke-width="2" stroke-opacity="0.200000" points="320.34,-220.15 326.27,-217.89 320.22,-215.96 320.34,-220.15"/>
</g>
<!-- src/use&#45;cases/specs/voting.spec.ts&#45;&gt;src/use&#45;cases/entities/not&#45;found&#45;error.ts -->
<g id="edge24" class="edge">
<title>src/use&#45;cases/specs/voting.spec.ts&#45;&gt;src/use&#45;cases/entities/not&#45;found&#45;error.ts</title>
<path fill="none" stroke="#000000" stroke-width="2" stroke-opacity="0.200000" d="M146.8,-223.11C161.54,-224.7 177.49,-229 189,-239 197.49,-246.38 187.88,-256.43 197,-263 214.49,-275.6 272.61,-265.63 294,-263 303.32,-261.85 313.24,-259.8 322.42,-257.53"/>
<polygon fill="#000000" fill-opacity="0.200000" stroke="#000000" stroke-width="2" stroke-opacity="0.200000" points="323.04,-259.54 328.33,-256.02 322,-255.47 323.04,-259.54"/>
</g>
<!-- src/use&#45;cases/vote&#45;idea.ts -->
<g id="node19" class="node">
<title>src/use&#45;cases/vote&#45;idea.ts</title>
<g id="a_node19"><a xlink:href="src/use-cases/vote-idea.ts" xlink:title="vote&#45;idea.ts">
<path fill="#ddfeff" stroke="black" d="M274,-255C274,-255 217,-255 217,-255 214,-255 211,-252 211,-249 211,-249 211,-243 211,-243 211,-240 214,-237 217,-237 217,-237 274,-237 274,-237 277,-237 280,-240 280,-243 280,-243 280,-249 280,-249 280,-252 277,-255 274,-255"/>
<text text-anchor="middle" x="245.5" y="-243.8" font-family="Helvetica,sans-Serif" font-size="9.00">vote&#45;idea.ts</text>
</a>
</g>
</g>
<!-- src/use&#45;cases/specs/voting.spec.ts&#45;&gt;src/use&#45;cases/vote&#45;idea.ts -->
<g id="edge25" class="edge">
<title>src/use&#45;cases/specs/voting.spec.ts&#45;&gt;src/use&#45;cases/vote&#45;idea.ts</title>
<path fill="none" stroke="#000000" stroke-width="2" stroke-opacity="0.200000" d="M146.76,-230.3C164.94,-233.22 186.52,-236.69 204.76,-239.62"/>
<polygon fill="#000000" fill-opacity="0.200000" stroke="#000000" stroke-width="2" stroke-opacity="0.200000" points="204.55,-241.71 210.81,-240.59 205.22,-237.57 204.55,-241.71"/>
</g>
<!-- src/use&#45;cases/vote&#45;idea.ts&#45;&gt;src/use&#45;cases/entities/brainstorm.ts -->
<g id="edge26" class="edge">
<title>src/use&#45;cases/vote&#45;idea.ts&#45;&gt;src/use&#45;cases/entities/brainstorm.ts</title>
<path fill="none" stroke="#000000" stroke-width="2" stroke-opacity="0.200000" d="M255.49,-236.91C265.84,-226.95 283.77,-211.17 302,-202 305.96,-200.01 310.21,-198.26 314.53,-196.73"/>
<polygon fill="#000000" fill-opacity="0.200000" stroke="#000000" stroke-width="2" stroke-opacity="0.200000" points="315.42,-198.65 320.46,-194.77 314.11,-194.66 315.42,-198.65"/>
</g>
<!-- src/use&#45;cases/vote&#45;idea.ts&#45;&gt;src/use&#45;cases/entities/member.ts -->
<g id="edge27" class="edge">
<title>src/use&#45;cases/vote&#45;idea.ts&#45;&gt;src/use&#45;cases/entities/member.ts</title>
<path fill="none" stroke="#000000" stroke-width="2" stroke-opacity="0.200000" d="M280.26,-237.22C292.93,-233.92 307.41,-230.16 320.41,-226.78"/>
<polygon fill="#000000" fill-opacity="0.200000" stroke="#000000" stroke-width="2" stroke-opacity="0.200000" points="320.99,-228.8 326.27,-225.25 319.93,-224.73 320.99,-228.8"/>
</g>
<!-- src/use&#45;cases/vote&#45;idea.ts&#45;&gt;src/use&#45;cases/entities/not&#45;found&#45;error.ts -->
<g id="edge28" class="edge">
<title>src/use&#45;cases/vote&#45;idea.ts&#45;&gt;src/use&#45;cases/entities/not&#45;found&#45;error.ts</title>
<path fill="none" stroke="#000000" stroke-width="2" stroke-opacity="0.200000" d="M280.26,-246.3C288.02,-246.37 296.46,-246.45 304.83,-246.52"/>
<polygon fill="#000000" fill-opacity="0.200000" stroke="#000000" stroke-width="2" stroke-opacity="0.200000" points="305.17,-248.63 311.19,-246.58 305.21,-244.43 305.17,-248.63"/>
</g>
</g>
</svg>
